<svg xmlns="http://www.w3.org/2000/svg" xmlns:xlink="http://www.w3.org/1999/xlink" xmlns:lucid="lucid" width="3225.46" height="2649.49"><g transform="translate(0 0)" lucid:page-tab-id="HWEp-vi-RSFO"><path d="M0 0h3225.46v2649.5H0z" fill="#fff"/><path d="M453.15 75a8 8 0 0 1 8-8h836.75a8 8 0 0 1 8 8v25.16a8 8 0 0 1-8 8H461.15a8 8 0 0 1-8-8z" stroke="#000" stroke-opacity="0" stroke-width="2" fill="#fff" fill-opacity="0"/><use xlink:href="#a" transform="matrix(1,0,0,1,457.1465527853429,70.99999999994924) translate(329.29765432098765 23.657777777777778)"/><path d="M729.63 106.8H1039M729.65 106.8h-1.02M1038.96 106.8h1.03" stroke="#a9afb8" stroke-width="2" fill="none"/><path d="M453.15 116.16a8 8 0 0 1 8-8h837.7a8 8 0 0 1 8 8V119a8 8 0 0 1-8 8h-837.7a8 8 0 0 1-8-8z" stroke="#000" stroke-opacity="0" stroke-width="2" fill="#fff" fill-opacity="0"/><use xlink:href="#b" transform="matrix(1,0,0,1,457.1465527853434,112.15522395684805) translate(312.6925102880659 14.917037037037037)"/><use xlink:href="#c" transform="matrix(1,0,0,1,457.1465527853434,112.15522395684805) translate(355.0547530864198 14.917037037037037)"/><use xlink:href="#d" transform="matrix(1,0,0,1,457.1465527853434,112.15522395684805) translate(421.33870370370374 14.917037037037037)"/><use xlink:href="#e" transform="matrix(1,0,0,1,457.1465527853434,112.15522395684805) translate(433.78818930041155 14.917037037037037)"/><use xlink:href="#f" transform="matrix(1,0,0,1,457.1465527853434,112.15522395684805) translate(480.44189300411523 14.917037037037037)"/><use xlink:href="#g" transform="matrix(1,0,0,1,457.1465527853434,112.15522395684805) translate(505.93572016460905 14.917037037037037)"/><path d="M210 240h300v223H210z" stroke="#333" stroke-width="2" fill="#fff"/><path d="M210 299.2h300" stroke="#333" stroke-width="2" fill="none"/><use xlink:href="#h" transform="matrix(1,0,0,1,218,248) translate(97.55 14.799999999999999)"/><use xlink:href="#i" transform="matrix(1,0,0,1,218,248) translate(123.075 36.4)"/><use xlink:href="#j" transform="matrix(1,0,0,1,222,307.2) translate(0 56)"/><use xlink:href="#k" transform="matrix(1,0,0,1,222,307.2) translate(15.5 56)"/><use xlink:href="#l" transform="matrix(1,0,0,1,222,307.2) translate(179.2 56)"/><use xlink:href="#j" transform="matrix(1,0,0,1,222,307.2) translate(0 77.60000000000001)"/><use xlink:href="#m" transform="matrix(1,0,0,1,222,307.2) translate(15.5 77.60000000000001)"/><use xlink:href="#l" transform="matrix(1,0,0,1,222,307.2) translate(154.20000000000002 77.60000000000001)"/><use xlink:href="#j" transform="matrix(1,0,0,1,222,307.2) translate(0 99.20000000000002)"/><use xlink:href="#n" transform="matrix(1,0,0,1,222,307.2) translate(15.5 99.20000000000002)"/><use xlink:href="#o" transform="matrix(1,0,0,1,222,307.2) translate(78.9 99.20000000000002)"/><path d="M740 258.5h340v160H740z" stroke="#333" stroke-width="2" fill="#fff"/><path d="M740 317.7h340" stroke="#333" stroke-width="2" fill="none"/><use xlink:href="#h" transform="matrix(1,0,0,1,748,266.5) translate(117.55 14.799999999999999)"/><use xlink:href="#p" transform="matrix(1,0,0,1,748,266.5) translate(127.6 36.4)"/><use xlink:href="#j" transform="matrix(1,0,0,1,752,325.7) translate(0 46.6)"/><use xlink:href="#q" transform="matrix(1,0,0,1,752,325.7) translate(15.5 46.6)"/><use xlink:href="#r" transform="matrix(1,0,0,1,752,325.7) translate(194.8 46.6)"/><use xlink:href="#s" transform="matrix(1,0,0,1,752,325.7) translate(274.70000000000005 46.6)"/><path d="M80 580h560v240H80z" stroke="#333" stroke-width="2" fill="#fff"/><path d="M80 617.6h560M80 740.5h560" stroke="#333" stroke-width="2" fill="none"/><use xlink:href="#t" transform="matrix(1,0,0,1,88,588) translate(255.575 14.6)"/><use xlink:href="#u" transform="matrix(1,0,0,1,92,625.6) translate(0 24.69999999999999)"/><use xlink:href="#v" transform="matrix(1,0,0,1,92,625.6) translate(10.95 24.69999999999999)"/><use xlink:href="#w" transform="matrix(1,0,0,1,92,625.6) translate(83.85000000000001 24.69999999999999)"/><use xlink:href="#u" transform="matrix(1,0,0,1,92,625.6) translate(0 46.29999999999999)"/><use xlink:href="#x" transform="matrix(1,0,0,1,92,625.6) translate(10.95 46.29999999999999)"/><use xlink:href="#y" transform="matrix(1,0,0,1,92,625.6) translate(163.75 46.29999999999999)"/><use xlink:href="#u" transform="matrix(1,0,0,1,92,625.6) translate(0 67.89999999999999)"/><use xlink:href="#z" transform="matrix(1,0,0,1,92,625.6) translate(10.95 67.89999999999999)"/><use xlink:href="#A" transform="matrix(1,0,0,1,92,625.6) translate(48.900000000000006 67.89999999999999)"/><use xlink:href="#u" transform="matrix(1,0,0,1,92,625.6) translate(0 89.5)"/><use xlink:href="#B" transform="matrix(1,0,0,1,92,625.6) translate(10.95 89.5)"/><use xlink:href="#C" transform="matrix(1,0,0,1,92,625.6) translate(129.7 89.5)"/><use xlink:href="#j" transform="matrix(1,0,0,1,92,748.5) translate(0 24.799999999999997)"/><use xlink:href="#D" transform="matrix(1,0,0,1,92,748.5) translate(15.5 24.799999999999997)"/><use xlink:href="#E" transform="matrix(1,0,0,1,92,748.5) translate(163.3 24.799999999999997)"/><use xlink:href="#F" transform="matrix(1,0,0,1,92,748.5) translate(283.15000000000003 24.799999999999997)"/><use xlink:href="#G" transform="matrix(1,0,0,1,92,748.5) translate(398.00000000000006 24.799999999999997)"/><use xlink:href="#u" transform="matrix(1,0,0,1,92,748.5) translate(0 46.4)"/><use xlink:href="#H" transform="matrix(1,0,0,1,92,748.5) translate(10.95 46.4)"/><use xlink:href="#s" transform="matrix(1,0,0,1,92,748.5) translate(160.64999999999998 46.4)"/><path d="M740 558.5h340v305H740z" stroke="#333" stroke-width="2" fill="#fff"/><path d="M740 596.1h340M740 697.4h340" stroke="#333" stroke-width="2" fill="none"/><use xlink:href="#I" transform="matrix(1,0,0,1,748,566.5) translate(130.1 14.6)"/><use xlink:href="#u" transform="matrix(1,0,0,1,752,604.1) translate(0 25)"/><use xlink:href="#J" transform="matrix(1,0,0,1,752,604.1) translate(10.95 25)"/><use xlink:href="#K" transform="matrix(1,0,0,1,752,604.1) translate(52.900000000000006 25)"/><use xlink:href="#u" transform="matrix(1,0,0,1,752,604.1) translate(0 46.6)"/><use xlink:href="#L" transform="matrix(1,0,0,1,752,604.1) translate(10.95 46.6)"/><use xlink:href="#M" transform="matrix(1,0,0,1,752,604.1) translate(64.75 46.6)"/><use xlink:href="#u" transform="matrix(1,0,0,1,752,604.1) translate(0 68.2)"/><use xlink:href="#N" transform="matrix(1,0,0,1,752,604.1) translate(10.95 68.2)"/><use xlink:href="#O" transform="matrix(1,0,0,1,752,604.1) translate(114.8 68.2)"/><use xlink:href="#j" transform="matrix(1,0,0,1,752,705.4) translate(0 25.1)"/><use xlink:href="#P" transform="matrix(1,0,0,1,752,705.4) translate(15.5 25.1)"/><use xlink:href="#Q" transform="matrix(1,0,0,1,752,705.4) translate(192.15 25.1)"/><use xlink:href="#j" transform="matrix(1,0,0,1,752,705.4) translate(0 46.7)"/><use xlink:href="#q" transform="matrix(1,0,0,1,752,705.4) translate(15.5 46.7)"/><use xlink:href="#r" transform="matrix(1,0,0,1,752,705.4) translate(194.8 46.7)"/><use xlink:href="#w" transform="matrix(1,0,0,1,752,705.4) translate(274.70000000000005 46.7)"/><use xlink:href="#j" transform="matrix(1,0,0,1,752,705.4) translate(0 68.30000000000001)"/><use xlink:href="#R" transform="matrix(1,0,0,1,752,705.4) translate(15.5 68.30000000000001)"/><use xlink:href="#l" transform="matrix(1,0,0,1,752,705.4) translate(83.30000000000001 68.30000000000001)"/><use xlink:href="#j" transform="matrix(1,0,0,1,752,705.4) translate(0 89.90000000000002)"/><use xlink:href="#S" transform="matrix(1,0,0,1,752,705.4) translate(15.5 89.90000000000002)"/><use xlink:href="#T" transform="matrix(1,0,0,1,752,705.4) translate(162.25 89.90000000000002)"/><use xlink:href="#u" transform="matrix(1,0,0,1,752,705.4) translate(0 111.50000000000001)"/><use xlink:href="#U" transform="matrix(1,0,0,1,752,705.4) translate(10.95 111.50000000000001)"/><use xlink:href="#l" transform="matrix(1,0,0,1,752,705.4) translate(163.24999999999997 111.50000000000001)"/><use xlink:href="#u" transform="matrix(1,0,0,1,752,705.4) translate(0 133.1)"/><use xlink:href="#V" transform="matrix(1,0,0,1,752,705.4) translate(10.95 133.1)"/><use xlink:href="#W" transform="matrix(1,0,0,1,752,705.4) translate(153.64999999999998 133.1)"/><path d="M210 979h300v219H210z" stroke="#333" stroke-width="2" fill="#fff"/><path d="M210 1016.6h300m-300 79.7h300" stroke="#333" stroke-width="2" fill="none"/><g><use xlink:href="#X" transform="matrix(1,0,0,1,218,987) translate(107.125 14.6)"/></g><g><use xlink:href="#j" transform="matrix(1,0,0,1,222,1024.6) translate(0 24.799999999999997)"/><use xlink:href="#Y" transform="matrix(1,0,0,1,222,1024.6) translate(15.5 24.799999999999997)"/><use xlink:href="#T" transform="matrix(1,0,0,1,222,1024.6) translate(58.45 24.799999999999997)"/><use xlink:href="#j" transform="matrix(1,0,0,1,222,1024.6) translate(0 46.4)"/><use xlink:href="#Z" transform="matrix(1,0,0,1,222,1024.6) translate(15.5 46.4)"/><use xlink:href="#O" transform="matrix(1,0,0,1,222,1024.6) translate(113.65 46.4)"/></g><g><use xlink:href="#j" transform="matrix(1,0,0,1,222,1104.3) translate(0 25)"/><use xlink:href="#aa" transform="matrix(1,0,0,1,222,1104.3) translate(15.5 25)"/><use xlink:href="#j" transform="matrix(1,0,0,1,222,1104.3) translate(0 46.6)"/><use xlink:href="#ab" transform="matrix(1,0,0,1,222,1104.3) translate(15.5 46.6)"/><use xlink:href="#T" transform="matrix(1,0,0,1,222,1104.3) translate(104.30000000000001 46.6)"/><use xlink:href="#u" transform="matrix(1,0,0,1,222,1104.3) translate(0 68.2)"/><use xlink:href="#ac" transform="matrix(1,0,0,1,222,1104.3) translate(10.95 68.2)"/><use xlink:href="#W" transform="matrix(1,0,0,1,222,1104.3) translate(153.65 68.2)"/></g><path d="M360 821.5v155.6" stroke="#333" fill="none"/><path d="M360.5 821.5h-1v-.5h1z" stroke="#333" stroke-width=".05" fill="#333"/><path d="M349.82 959.8L360 977.02l10.18-17.22" stroke="#333" fill="none"/><g><use xlink:href="#ad" transform="matrix(1,0,0,1,368,840.8623067776459) translate(0 14.4)"/></g><g><use xlink:href="#ae" transform="matrix(1,0,0,1,378.18082831500743,945.8206896551727) translate(0 14.4)"/></g><path d="M360 578.5v-5.08m0-5.1v-10.15m0-5.1v-10.15m0-5.1v-10.15m0-5.1v-10.15m0-5.1v-10.15m0-5.1V487" stroke="#333" fill="none"/><path d="M360.5 579h-1v-.5h1z" stroke="#333" stroke-width=".05" fill="#333"/><path d="M360 464.98l12.73 21.52h-25.46z" stroke="#333" fill="#fff"/><path d="M910 557v-4.77m0-4.77v-9.54m0-4.77v-9.55m0-4.77v-9.54m0-4.78v-9.54m0-4.77v-9.53m0-4.77v-9.54m0-4.78v-9.54m0-4.77v-4.77" stroke="#333" fill="none"/><path d="M910.5 557.5h-1v-.5h1z" stroke="#333" stroke-width=".05" fill="#333"/><path d="M910 420.48L922.73 442h-25.46z" stroke="#333" fill="#fff"/><path d="M1840 240h220v160h-220z" stroke="#333" stroke-width="2" fill="#fff"/><path d="M1840 299.2h220" stroke="#333" stroke-width="2" fill="none"/><g><use xlink:href="#h" transform="matrix(1,0,0,1,1848,248) translate(57.55 14.799999999999999)"/><use xlink:href="#af" transform="matrix(1,0,0,1,1848,248) translate(43.074999999999996 36.4)"/></g><g><use xlink:href="#j" transform="matrix(1,0,0,1,1852,307.2) translate(0 46.6)"/><use xlink:href="#ag" transform="matrix(1,0,0,1,1852,307.2) translate(15.5 46.6)"/><use xlink:href="#O" transform="matrix(1,0,0,1,1852,307.2) translate(61.400000000000006 46.6)"/></g><path d="M1840 540h220v140h-220z" stroke="#333" stroke-width="2" fill="#fff"/><path d="M1840 577.6h220m-220 51.1h220" stroke="#333" stroke-width="2" fill="none"/><g><use xlink:href="#ah" transform="matrix(1,0,0,1,1848,548) translate(27.799999999999997 14.6)"/></g><path d="M1081.5 711h8.5a12 12 0 0 1 12 12v105a12 12 0 0 0 12 12h634a12 12 0 0 0 12-12V358.48a12 12 0 0 1 12-12h66.1" stroke="#333" fill="none"/><path d="M1081.5 711.5h-.5v-1h.5z" stroke="#333" stroke-width=".05" fill="#333"/><path d="M1820.8 356.66l17.22-10.18-17.22-10.18M1950 538.5v-4.77m0-4.77v-9.54m0-4.77v-9.55m0-4.77v-9.54m0-4.78v-9.54m0-4.77v-9.53m0-4.77v-9.54m0-4.78v-9.54m0-4.77V424" stroke="#333" fill="none"/><path d="M1950.5 539h-1v-.5h1z" stroke="#333" stroke-width=".05" fill="#333"/><path d="M1950 401.98l12.73 21.52h-25.46z" stroke="#333" fill="#fff"/><path d="M1240 300h460v160h-460z" stroke="#333" stroke-width="2" fill="#fff"/><path d="M1240 359.2h460" stroke="#333" stroke-width="2" fill="none"/><g><use xlink:href="#h" transform="matrix(1,0,0,1,1248,308) translate(177.55 14.799999999999999)"/><use xlink:href="#ai" transform="matrix(1,0,0,1,1248,308) translate(159.125 36.4)"/></g><g><use xlink:href="#j" transform="matrix(1,0,0,1,1252,367.2) translate(0 46.6)"/><use xlink:href="#aj" transform="matrix(1,0,0,1,1252,367.2) translate(15.5 46.6)"/><use xlink:href="#ak" transform="matrix(1,0,0,1,1252,367.2) translate(236.24999999999997 46.6)"/><use xlink:href="#s" transform="matrix(1,0,0,1,1252,367.2) translate(365.1 46.6)"/></g><path d="M1300 599.5h340v154h-340z" stroke="#333" stroke-width="2" fill="#fff"/><path d="M1300 637.1h340m-340 58.1h340" stroke="#333" stroke-width="2" fill="none"/><g><use xlink:href="#al" transform="matrix(1,0,0,1,1308,607.5) translate(101.625 14.6)"/></g><path d="M1470 598v-4.75m0-4.75V579m0-4.75v-9.5m0-4.75v-9.5m0-4.75v-9.5m0-4.75V522m0-4.75v-9.5m0-4.75v-9.5m0-4.75V484" stroke="#333" fill="none"/><path d="M1470.5 598.5h-1v-.5h1z" stroke="#333" stroke-width=".05" fill="#333"/><path d="M1470 461.98l12.73 21.52h-25.46z" stroke="#333" fill="#fff"/><path d="M1298.5 676.5H1172a12 12 0 0 1-12-12V368a12 12 0 0 0-12-12h-66.1" stroke="#333" fill="none"/><path d="M1299 677h-.5v-1h.5z" stroke="#333" stroke-width=".05" fill="#333"/><path d="M1099.2 345.82L1081.98 356l17.22 10.18" stroke="#333" fill="none"/><path d="M641.5 700H688a12 12 0 0 0 12-12V252a12 12 0 0 1 12-12h688a12 12 0 0 1 12 12v46.1" stroke="#333" fill="none"/><path d="M641.5 700.5h-.5v-1h.5z" stroke="#333" stroke-width=".05" fill="#333"/><path d="M1401.82 280.8l10.18 17.22 10.18-17.22" stroke="#333" fill="none"/><path d="M641.5 700H658a12 12 0 0 0 12-12V211a12 12 0 0 1 12-12h1256a12 12 0 0 1 12 12v27.1" stroke="#333" fill="none"/><path d="M641.5 700.5h-.5v-1h.5z" stroke="#333" stroke-width=".05" fill="#333"/><path d="M1939.82 220.8l10.18 17.22 10.18-17.22" stroke="#333" fill="none"/><path d="M516.46 1089h-4.96v-1h4.96zm14.86 0h-9.9v-1h9.9zm14.87 0h-9.92v-1h9.9zm14.85 0h-9.9v-1h9.9zm14.87 0h-9.9v-1h9.9zm14.86 0h-9.9v-1h9.9zm14.87 0h-9.9v-1h9.9zm14.86 0h-9.9v-1h9.9zm14.88 0h-9.9v-1h9.9zm14.86 0h-9.9v-1h9.9zm14.87 0h-9.9v-1h9.9zm14.87 0h-9.9v-1h9.9zm14.87 0h-9.9v-1h9.9zm14.87 0h-9.9v-1h9.9zm14.87 0h-9.9v-1h9.9zm14.87 0h-9.9v-1h9.9zm14.86 0h-9.9v-1h9.9zm14.87 0h-9.9v-1h9.9zm14.86 0h-9.9v-1h9.9zm14.87 0H789v-1h9.9zm14.86 0h-9.9v-1h9.9zm14.87 0h-9.9v-1h9.9zm14.86 0h-9.92v-1h9.9zm14.86 0h-9.9v-1h9.9zm14.86 0h-9.9v-1h9.9zm14.87 0h-9.92v-1h9.9zm16.14-1.7l-.56.34-1.82.75-1.9.45-1.94.15h-4.98v-1H898l1.82-.14 1.75-.42 1.67-.7.5-.3zm6.26-10.78l-.15 1.94-.46 1.9-.76 1.82-.35.56-.86-.52.3-.5.7-1.67.42-1.75.14-1.82v-5h1zm0-10.07h-1v-10.05h1zm0-15.08h-1v-10.05h1zm0-15.08h-1v-10.06h1zm0-15.1h-1v-10.04h1zm0-15.06h-1v-1.9h1zm0-23.5h-1V981h1zm0-6.66h-1v-10.05h1zm0-15.08h-1v-10.05h1zm0-15.07h-1v-10.06h1zm0-15.08h-1V920.7h1zm0-15.08h-1v-10.05h1zm0-15.08h-1v-10.06h1zm0-15.1h-1v-10.04h1zm0-15.07h-1v-5.02h1z" stroke="#333" stroke-width=".05" fill="#333"/><path d="M511.5 1089h-.5v-1h.5z" fill="#333"/><path d="M511.54 1089.03h-.56v-1.06h.56zm-.52-1v.94h.47v-.94zM920.6 882.44l-.85.5-9.75-16.48-9.75 16.5-.86-.52L910 864.5z" stroke="#333" stroke-width=".05" fill="#333"/><g><use xlink:href="#am" transform="matrix(1,0,0,1,891,982.6314489928528) translate(0.004999999999999005 14.4)"/></g><defs><path fill="#a9afb8" d="M24 0v-248h52v208h133V0H24" id="an"/><path fill="#a9afb8" d="M110-194c64 0 96 36 96 99 0 64-35 99-97 99-61 0-95-36-95-99 0-62 34-99 96-99zm-1 164c35 0 45-28 45-65 0-40-10-65-43-65-34 0-45 26-45 65 0 36 10 65 43 65" id="ao"/><path fill="#a9afb8" d="M195-6C206 82 75 100 31 46c-4-6-6-13-8-21l49-6c3 16 16 24 34 25 40 0 42-37 40-79-11 22-30 35-61 35-53 0-70-43-70-97 0-56 18-96 73-97 30 0 46 14 59 34l2-30h47zm-90-29c32 0 41-27 41-63 0-35-9-62-40-62-32 0-39 29-40 63 0 36 9 62 39 62" id="ap"/><path fill="#a9afb8" d="M67-125c0 53 21 87 73 88 37 1 54-22 65-47l45 17C233-25 199 4 140 4 58 4 20-42 15-125 8-235 124-281 211-232c18 10 29 29 36 50l-46 12c-8-25-30-41-62-41-52 0-71 34-72 86" id="aq"/><path fill="#a9afb8" d="M220-157c-53 9-28 100-34 157h-49v-107c1-27-5-49-29-50C55-147 81-57 75 0H25l-1-190h47c2 12-1 28 3 38 10-53 101-56 108 0 13-22 24-43 59-42 82 1 51 116 57 194h-49v-107c-1-25-5-48-29-50" id="ar"/><path fill="#a9afb8" d="M135-194c53 0 70 44 70 98 0 56-19 98-73 100-31 1-45-17-59-34 3 33 2 69 2 105H25l-1-265h48c2 10 0 23 3 31 11-24 29-35 60-35zM114-30c33 0 39-31 40-66 0-38-9-64-40-64-56 0-55 130 0 130" id="as"/><path fill="#a9afb8" d="M135-194c87-1 58 113 63 194h-50c-7-57 23-157-34-157-59 0-34 97-39 157H25l-1-190h47c2 12-1 28 3 38 12-26 28-41 61-42" id="at"/><path fill="#a9afb8" d="M185-48c-13 30-37 53-82 52C43 2 14-33 14-96s30-98 90-98c62 0 83 45 84 108H66c0 31 8 55 39 56 18 0 30-7 34-22zm-45-69c5-46-57-63-70-21-2 6-4 13-4 21h74" id="au"/><path fill="#a9afb8" d="M115-3C79 11 28 4 28-45v-112H4v-33h27l15-45h31v45h36v33H77v99c-1 23 16 31 38 25v30" id="av"/><g id="a"><use transform="matrix(0.0728395061728395,0,0,0.0728395061728395,0,0)" xlink:href="#an"/><use transform="matrix(0.0728395061728395,0,0,0.0728395061728395,15.95185185185185,0)" xlink:href="#ao"/><use transform="matrix(0.0728395061728395,0,0,0.0728395061728395,31.9037037037037,0)" xlink:href="#ap"/><use transform="matrix(0.0728395061728395,0,0,0.0728395061728395,47.855555555555554,0)" xlink:href="#aq"/><use transform="matrix(0.0728395061728395,0,0,0.0728395061728395,66.720987654321,0)" xlink:href="#ao"/><use transform="matrix(0.0728395061728395,0,0,0.0728395061728395,82.67283950617285,0)" xlink:href="#ar"/><use transform="matrix(0.0728395061728395,0,0,0.0728395061728395,105.9814814814815,0)" xlink:href="#as"/><use transform="matrix(0.0728395061728395,0,0,0.0728395061728395,121.93333333333335,0)" xlink:href="#ao"/><use transform="matrix(0.0728395061728395,0,0,0.0728395061728395,137.8851851851852,0)" xlink:href="#at"/><use transform="matrix(0.0728395061728395,0,0,0.0728395061728395,153.83703703703702,0)" xlink:href="#au"/><use transform="matrix(0.0728395061728395,0,0,0.0728395061728395,168.40493827160495,0)" xlink:href="#at"/><use transform="matrix(0.0728395061728395,0,0,0.0728395061728395,184.3567901234568,0)" xlink:href="#av"/></g><path fill="#a9afb8" d="M210-169c-67 3-38 105-44 169h-31v-121c0-29-5-50-35-48C34-165 62-65 56 0H25l-1-190h30c1 10-1 24 2 32 10-44 99-50 107 0 11-21 27-35 58-36 85-2 47 119 55 194h-31v-121c0-29-5-49-35-48" id="aw"/><path fill="#a9afb8" d="M141-36C126-15 110 5 73 4 37 3 15-17 15-53c-1-64 63-63 125-63 3-35-9-54-41-54-24 1-41 7-42 31l-33-3c5-37 33-52 76-52 45 0 72 20 72 64v82c-1 20 7 32 28 27v20c-31 9-61-2-59-35zM48-53c0 20 12 33 32 33 41-3 63-29 60-74-43 2-92-5-92 41" id="ax"/><path fill="#a9afb8" d="M114-163C36-179 61-72 57 0H25l-1-190h30c1 12-1 29 2 39 6-27 23-49 58-41v29" id="ay"/><path fill="#a9afb8" d="M24-231v-30h32v30H24zM24 0v-190h32V0H24" id="az"/><g id="b"><use transform="matrix(0.04248971193415638,0,0,0.04248971193415638,0,0)" xlink:href="#aw"/><use transform="matrix(0.04248971193415638,0,0,0.04248971193415638,12.704423868312757,0)" xlink:href="#ax"/><use transform="matrix(0.04248971193415638,0,0,0.04248971193415638,21.20236625514403,0)" xlink:href="#ay"/><use transform="matrix(0.04248971193415638,0,0,0.04248971193415638,26.25864197530864,0)" xlink:href="#az"/><use transform="matrix(0.04248971193415638,0,0,0.04248971193415638,29.615329218106993,0)" xlink:href="#ax"/></g><path fill="#a9afb8" d="M135-143c-3-34-86-38-87 0 15 53 115 12 119 90S17 21 10-45l28-5c4 36 97 45 98 0-10-56-113-15-118-90-4-57 82-63 122-42 12 7 21 19 24 35" id="aA"/><path fill="#a9afb8" d="M100-194c63 0 86 42 84 106H49c0 40 14 67 53 68 26 1 43-12 49-29l28 8c-11 28-37 45-77 45C44 4 14-33 15-96c1-61 26-98 85-98zm52 81c6-60-76-77-97-28-3 7-6 17-6 28h103" id="aB"/><path fill="#a9afb8" d="M117-194c89-4 53 116 60 194h-32v-121c0-31-8-49-39-48C34-167 62-67 57 0H25l-1-190h30c1 10-1 24 2 32 11-22 29-35 61-36" id="aC"/><path fill="#a9afb8" d="M100-194c62-1 85 37 85 99 1 63-27 99-86 99S16-35 15-95c0-66 28-99 85-99zM99-20c44 1 53-31 53-75 0-43-8-75-51-75s-53 32-53 75 10 74 51 75" id="aD"/><path fill="#a9afb8" d="M108 0H70L1-190h34L89-25l56-165h34" id="aE"/><g id="c"><use transform="matrix(0.04248971193415638,0,0,0.04248971193415638,0,0)" xlink:href="#ax"/><use transform="matrix(0.04248971193415638,0,0,0.04248971193415638,8.497942386831275,0)" xlink:href="#aA"/><use transform="matrix(0.04248971193415638,0,0,0.04248971193415638,16.14609053497942,0)" xlink:href="#aB"/><use transform="matrix(0.04248971193415638,0,0,0.04248971193415638,24.644032921810698,0)" xlink:href="#aC"/><use transform="matrix(0.04248971193415638,0,0,0.04248971193415638,33.141975308641975,0)" xlink:href="#aD"/><use transform="matrix(0.04248971193415638,0,0,0.04248971193415638,41.63991769547325,0)" xlink:href="#aE"/><use transform="matrix(0.04248971193415638,0,0,0.04248971193415638,49.288065843621396,0)" xlink:href="#ax"/></g><path fill="#a9afb8" d="M32 76v-337h29V76H32" id="aF"/><use transform="matrix(0.04248971193415638,0,0,0.04248971193415638,0,0)" xlink:href="#aF" id="d"/><path fill="#a9afb8" d="M240 0l2-218c-23 76-54 145-80 218h-23L58-218 59 0H30v-248h44l77 211c21-75 51-140 76-211h43V0h-30" id="aG"/><path fill="#a9afb8" d="M96-169c-40 0-48 33-48 73s9 75 48 75c24 0 41-14 43-38l32 2c-6 37-31 61-74 61-59 0-76-41-82-99-10-93 101-131 147-64 4 7 5 14 7 22l-32 3c-4-21-16-35-41-35" id="aH"/><path fill="#a9afb8" d="M106-169C34-169 62-67 57 0H25v-261h32l-1 103c12-21 28-36 61-36 89 0 53 116 60 194h-32v-121c2-32-8-49-39-48" id="aI"/><g id="e"><use transform="matrix(0.04248971193415638,0,0,0.04248971193415638,0,0)" xlink:href="#aG"/><use transform="matrix(0.04248971193415638,0,0,0.04248971193415638,12.704423868312757,0)" xlink:href="#ax"/><use transform="matrix(0.04248971193415638,0,0,0.04248971193415638,21.20236625514403,0)" xlink:href="#ay"/><use transform="matrix(0.04248971193415638,0,0,0.04248971193415638,26.25864197530864,0)" xlink:href="#aH"/><use transform="matrix(0.04248971193415638,0,0,0.04248971193415638,33.90679012345679,0)" xlink:href="#aI"/></g><path fill="#a9afb8" d="M126-127c33 6 58 20 58 59 0 88-139 92-164 29-3-8-5-16-6-25l32-3c6 27 21 44 54 44 32 0 52-15 52-46 0-38-36-46-79-43v-28c39 1 72-4 72-42 0-27-17-43-46-43-28 0-47 15-49 41l-32-3c6-42 35-63 81-64 48-1 79 21 79 65 0 36-21 52-52 59" id="aJ"/><path fill="#a9afb8" d="M101-251c68 0 85 55 85 127S166 4 100 4C33 4 14-52 14-124c0-73 17-127 87-127zm-1 229c47 0 54-49 54-102s-4-102-53-102c-51 0-55 48-55 102 0 53 5 102 54 102" id="aK"/><path fill="#a9afb8" d="M68-38c1 34 0 65-14 84H32c9-13 17-26 17-46H33v-38h35" id="aL"/><g id="f"><use transform="matrix(0.04248971193415638,0,0,0.04248971193415638,0,0)" xlink:href="#aJ"/><use transform="matrix(0.04248971193415638,0,0,0.04248971193415638,8.497942386831275,0)" xlink:href="#aK"/><use transform="matrix(0.04248971193415638,0,0,0.04248971193415638,16.99588477366255,0)" xlink:href="#aL"/></g><path fill="#a9afb8" d="M101-251c82-7 93 87 43 132L82-64C71-53 59-42 53-27h129V0H18c2-99 128-94 128-182 0-28-16-43-45-43s-46 15-49 41l-32-3c6-41 34-60 81-64" id="aM"/><g id="g"><use transform="matrix(0.04248971193415638,0,0,0.04248971193415638,0,0)" xlink:href="#aM"/><use transform="matrix(0.04248971193415638,0,0,0.04248971193415638,8.497942386831275,0)" xlink:href="#aK"/><use transform="matrix(0.04248971193415638,0,0,0.04248971193415638,16.99588477366255,0)" xlink:href="#aM"/><use transform="matrix(0.04248971193415638,0,0,0.04248971193415638,25.493827160493822,0)" xlink:href="#aJ"/></g><path fill="#333" d="M156-25L96-89v-11l60-65h29v5l-59 66 60 64v5h-30zm-82 0L15-89v-11l59-65h29v5L44-94l59 64v5H74" id="aN"/><path fill="#333" d="M24-231v-30h32v30H24zM24 0v-190h32V0H24" id="aO"/><path fill="#333" d="M117-194c89-4 53 116 60 194h-32v-121c0-31-8-49-39-48C34-167 62-67 57 0H25l-1-190h30c1 10-1 24 2 32 11-22 29-35 61-36" id="aP"/><path fill="#333" d="M59-47c-2 24 18 29 38 22v24C64 9 27 4 27-40v-127H5v-23h24l9-43h21v43h35v23H59v120" id="aQ"/><path fill="#333" d="M100-194c63 0 86 42 84 106H49c0 40 14 67 53 68 26 1 43-12 49-29l28 8c-11 28-37 45-77 45C44 4 14-33 15-96c1-61 26-98 85-98zm52 81c6-60-76-77-97-28-3 7-6 17-6 28h103" id="aR"/><path fill="#333" d="M114-163C36-179 61-72 57 0H25l-1-190h30c1 12-1 29 2 39 6-27 23-49 58-41v29" id="aS"/><path fill="#333" d="M101-234c-31-9-42 10-38 44h38v23H63V0H32v-167H5v-23h27c-7-52 17-82 69-68v24" id="aT"/><path fill="#333" d="M141-36C126-15 110 5 73 4 37 3 15-17 15-53c-1-64 63-63 125-63 3-35-9-54-41-54-24 1-41 7-42 31l-33-3c5-37 33-52 76-52 45 0 72 20 72 64v82c-1 20 7 32 28 27v20c-31 9-61-2-59-35zM48-53c0 20 12 33 32 33 41-3 63-29 60-74-43 2-92-5-92 41" id="aU"/><path fill="#333" d="M96-169c-40 0-48 33-48 73s9 75 48 75c24 0 41-14 43-38l32 2c-6 37-31 61-74 61-59 0-76-41-82-99-10-93 101-131 147-64 4 7 5 14 7 22l-32 3c-4-21-16-35-41-35" id="aV"/><path fill="#333" d="M126-25H97v-5l59-64-59-66v-5h29l60 65v11zm-82 0H15v-5l59-64-59-66v-5h29l59 65v11" id="aW"/><g id="h"><use transform="matrix(0.05,0,0,0.05,0,0)" xlink:href="#aN"/><use transform="matrix(0.05,0,0,0.05,10,0)" xlink:href="#aO"/><use transform="matrix(0.05,0,0,0.05,13.949999999999998,0)" xlink:href="#aP"/><use transform="matrix(0.05,0,0,0.05,23.95,0)" xlink:href="#aQ"/><use transform="matrix(0.05,0,0,0.05,28.950000000000003,0)" xlink:href="#aR"/><use transform="matrix(0.05,0,0,0.05,38.95,0)" xlink:href="#aS"/><use transform="matrix(0.05,0,0,0.05,44.900000000000006,0)" xlink:href="#aT"/><use transform="matrix(0.05,0,0,0.05,49.900000000000006,0)" xlink:href="#aU"/><use transform="matrix(0.05,0,0,0.05,59.900000000000006,0)" xlink:href="#aV"/><use transform="matrix(0.05,0,0,0.05,68.9,0)" xlink:href="#aR"/><use transform="matrix(0.05,0,0,0.05,78.9,0)" xlink:href="#aW"/></g><path fill="#333" d="M24 0v-248h52V0H24" id="aX"/><path fill="#333" d="M24 0v-248h52v208h133V0H24" id="aY"/><path fill="#333" d="M110-194c64 0 96 36 96 99 0 64-35 99-97 99-61 0-95-36-95-99 0-62 34-99 96-99zm-1 164c35 0 45-28 45-65 0-40-10-65-43-65-34 0-45 26-45 65 0 36 10 65 43 65" id="aZ"/><path fill="#333" d="M195-6C206 82 75 100 31 46c-4-6-6-13-8-21l49-6c3 16 16 24 34 25 40 0 42-37 40-79-11 22-30 35-61 35-53 0-70-43-70-97 0-56 18-96 73-97 30 0 46 14 59 34l2-30h47zm-90-29c32 0 41-27 41-63 0-35-9-62-40-62-32 0-39 29-40 63 0 36 9 62 39 62" id="ba"/><g id="i"><use transform="matrix(0.05,0,0,0.05,0,0)" xlink:href="#aX"/><use transform="matrix(0.05,0,0,0.05,5,0)" xlink:href="#aY"/><use transform="matrix(0.05,0,0,0.05,15.950000000000001,0)" xlink:href="#aZ"/><use transform="matrix(0.05,0,0,0.05,26.900000000000002,0)" xlink:href="#ba"/></g><path fill="#333" d="M118-107v75H92v-75H18v-26h74v-75h26v75h74v26h-74" id="bb"/><use transform="matrix(0.05,0,0,0.05,0,0)" xlink:href="#bb" id="j"/><path fill="#333" d="M185-189c-5-48-123-54-124 2 14 75 158 14 163 119 3 78-121 87-175 55-17-10-28-26-33-46l33-7c5 56 141 63 141-1 0-78-155-14-162-118-5-82 145-84 179-34 5 7 8 16 11 25" id="bc"/><path fill="#333" d="M100-194c62-1 85 37 85 99 1 63-27 99-86 99S16-35 15-95c0-66 28-99 85-99zM99-20c44 1 53-31 53-75 0-43-8-75-51-75s-53 32-53 75 10 74 51 75" id="bd"/><path fill="#333" d="M115-194c55 1 70 41 70 98S169 2 115 4C84 4 66-9 55-30l1 105H24l-1-265h31l2 30c10-21 28-34 59-34zm-8 174c40 0 45-34 45-75s-6-73-45-74c-42 0-51 32-51 76 0 43 10 73 51 73" id="be"/><path fill="#333" d="M266 0h-40l-56-210L115 0H75L2-248h35L96-30l15-64 43-154h32l59 218 59-218h35" id="bf"/><path fill="#333" d="M106-169C34-169 62-67 57 0H25v-261h32l-1 103c12-21 28-36 61-36 89 0 53 116 60 194h-32v-121c2-32-8-49-39-48" id="bg"/><path fill="#333" d="M84 4C-5 8 30-112 23-190h32v120c0 31 7 50 39 49 72-2 45-101 50-169h31l1 190h-30c-1-10 1-25-2-33-11 22-28 36-60 37" id="bh"/><path fill="#333" d="M63-220v92h138v28H63V0H30v-248h175v28H63" id="bi"/><path fill="#333" d="M24 0v-261h32V0H24" id="bj"/><path fill="#333" d="M135-143c-3-34-86-38-87 0 15 53 115 12 119 90S17 21 10-45l28-5c4 36 97 45 98 0-10-56-113-15-118-90-4-57 82-63 122-42 12 7 21 19 24 35" id="bk"/><path fill="#333" d="M87 75C49 33 22-17 22-94c0-76 28-126 65-167h31c-38 41-64 92-64 168S80 34 118 75H87" id="bl"/><path fill="#333" d="M33-261c38 41 65 92 65 168S71 34 33 75H2C39 34 66-17 66-93S39-220 2-261h31" id="bm"/><path fill="#333" d="M33-154v-36h34v36H33zM33 0v-36h34V0H33" id="bn"/><g id="k"><use transform="matrix(0.05,0,0,0.05,0,0)" xlink:href="#bc"/><use transform="matrix(0.05,0,0,0.05,12,0)" xlink:href="#aQ"/><use transform="matrix(0.05,0,0,0.05,17,0)" xlink:href="#bd"/><use transform="matrix(0.05,0,0,0.05,27,0)" xlink:href="#be"/><use transform="matrix(0.05,0,0,0.05,37,0)" xlink:href="#bf"/><use transform="matrix(0.05,0,0,0.05,53.95,0)" xlink:href="#aO"/><use transform="matrix(0.05,0,0,0.05,57.900000000000006,0)" xlink:href="#aQ"/><use transform="matrix(0.05,0,0,0.05,62.900000000000006,0)" xlink:href="#bg"/><use transform="matrix(0.05,0,0,0.05,72.9,0)" xlink:href="#bd"/><use transform="matrix(0.05,0,0,0.05,82.9,0)" xlink:href="#bh"/><use transform="matrix(0.05,0,0,0.05,92.9,0)" xlink:href="#aQ"/><use transform="matrix(0.05,0,0,0.05,97.9,0)" xlink:href="#bi"/><use transform="matrix(0.05,0,0,0.05,108.85000000000001,0)" xlink:href="#bj"/><use transform="matrix(0.05,0,0,0.05,112.80000000000001,0)" xlink:href="#bh"/><use transform="matrix(0.05,0,0,0.05,122.80000000000001,0)" xlink:href="#bk"/><use transform="matrix(0.05,0,0,0.05,131.8,0)" xlink:href="#bg"/><use transform="matrix(0.05,0,0,0.05,141.8,0)" xlink:href="#bl"/><use transform="matrix(0.05,0,0,0.05,147.75,0)" xlink:href="#bm"/><use transform="matrix(0.05,0,0,0.05,153.7,0)" xlink:href="#bn"/></g><path fill="#333" d="M108 0H70L1-190h34L89-25l56-165h34" id="bo"/><path fill="#333" d="M85-194c31 0 48 13 60 33l-1-100h32l1 261h-30c-2-10 0-23-3-31C134-8 116 4 85 4 32 4 16-35 15-94c0-66 23-100 70-100zm9 24c-40 0-46 34-46 75 0 40 6 74 45 74 42 0 51-32 51-76 0-42-9-74-50-73" id="bp"/><g id="l"><use transform="matrix(0.05,0,0,0.05,0,0)" xlink:href="#bo"/><use transform="matrix(0.05,0,0,0.05,9,0)" xlink:href="#bd"/><use transform="matrix(0.05,0,0,0.05,19,0)" xlink:href="#aO"/><use transform="matrix(0.05,0,0,0.05,22.95,0)" xlink:href="#bp"/></g><g id="m"><use transform="matrix(0.05,0,0,0.05,0,0)" xlink:href="#bc"/><use transform="matrix(0.05,0,0,0.05,12,0)" xlink:href="#aQ"/><use transform="matrix(0.05,0,0,0.05,17,0)" xlink:href="#bd"/><use transform="matrix(0.05,0,0,0.05,27,0)" xlink:href="#be"/><use transform="matrix(0.05,0,0,0.05,37,0)" xlink:href="#bf"/><use transform="matrix(0.05,0,0,0.05,53.95,0)" xlink:href="#aO"/><use transform="matrix(0.05,0,0,0.05,57.900000000000006,0)" xlink:href="#aQ"/><use transform="matrix(0.05,0,0,0.05,62.900000000000006,0)" xlink:href="#bg"/><use transform="matrix(0.05,0,0,0.05,72.9,0)" xlink:href="#bi"/><use transform="matrix(0.05,0,0,0.05,83.85000000000001,0)" xlink:href="#bj"/><use transform="matrix(0.05,0,0,0.05,87.80000000000001,0)" xlink:href="#bh"/><use transform="matrix(0.05,0,0,0.05,97.80000000000001,0)" xlink:href="#bk"/><use transform="matrix(0.05,0,0,0.05,106.80000000000001,0)" xlink:href="#bg"/><use transform="matrix(0.05,0,0,0.05,116.80000000000001,0)" xlink:href="#bl"/><use transform="matrix(0.05,0,0,0.05,122.75,0)" xlink:href="#bm"/><use transform="matrix(0.05,0,0,0.05,128.70000000000002,0)" xlink:href="#bn"/></g><g id="n"><use transform="matrix(0.05,0,0,0.05,0,0)" xlink:href="#bf"/><use transform="matrix(0.05,0,0,0.05,16.599999999999998,0)" xlink:href="#aS"/><use transform="matrix(0.05,0,0,0.05,22.549999999999997,0)" xlink:href="#aO"/><use transform="matrix(0.05,0,0,0.05,26.499999999999996,0)" xlink:href="#aQ"/><use transform="matrix(0.05,0,0,0.05,31.499999999999996,0)" xlink:href="#aR"/><use transform="matrix(0.05,0,0,0.05,41.5,0)" xlink:href="#bl"/><use transform="matrix(0.05,0,0,0.05,47.45,0)" xlink:href="#bm"/><use transform="matrix(0.05,0,0,0.05,53.400000000000006,0)" xlink:href="#bn"/></g><g id="o"><use transform="matrix(0.05,0,0,0.05,0,0)" xlink:href="#bo"/><use transform="matrix(0.05,0,0,0.05,9,0)" xlink:href="#bd"/><use transform="matrix(0.05,0,0,0.05,19,0)" xlink:href="#aO"/><use transform="matrix(0.05,0,0,0.05,22.95,0)" xlink:href="#bp"/></g><path fill="#333" d="M76-208v77h127v40H76V0H24v-248h183v40H76" id="bq"/><path fill="#333" d="M25-224v-37h50v37H25zM25 0v-190h50V0H25" id="br"/><path fill="#333" d="M25 0v-261h50V0H25" id="bs"/><path fill="#333" d="M185-48c-13 30-37 53-82 52C43 2 14-33 14-96s30-98 90-98c62 0 83 45 84 108H66c0 31 8 55 39 56 18 0 30-7 34-22zm-45-69c5-46-57-63-70-21-2 6-4 13-4 21h74" id="bt"/><g id="p"><use transform="matrix(0.05,0,0,0.05,0,0)" xlink:href="#aX"/><use transform="matrix(0.05,0,0,0.05,5,0)" xlink:href="#aY"/><use transform="matrix(0.05,0,0,0.05,15.950000000000001,0)" xlink:href="#aZ"/><use transform="matrix(0.05,0,0,0.05,26.900000000000002,0)" xlink:href="#ba"/><use transform="matrix(0.05,0,0,0.05,37.85,0)" xlink:href="#bq"/><use transform="matrix(0.05,0,0,0.05,48.800000000000004,0)" xlink:href="#br"/><use transform="matrix(0.05,0,0,0.05,53.800000000000004,0)" xlink:href="#bs"/><use transform="matrix(0.05,0,0,0.05,58.800000000000004,0)" xlink:href="#bt"/></g><path fill="#333" d="M30 0v-248h33v221h125V0H30" id="bu"/><path fill="#333" d="M177-190C167-65 218 103 67 71c-23-6-38-20-44-43l32-5c15 47 100 32 89-28v-30C133-14 115 1 83 1 29 1 15-40 15-95c0-56 16-97 71-98 29-1 48 16 59 35 1-10 0-23 2-32h30zM94-22c36 0 50-32 50-73 0-42-14-75-50-75-39 0-46 34-46 75s6 73 46 73" id="bv"/><g id="q"><use transform="matrix(0.05,0,0,0.05,0,0)" xlink:href="#bf"/><use transform="matrix(0.05,0,0,0.05,16.599999999999998,0)" xlink:href="#aS"/><use transform="matrix(0.05,0,0,0.05,22.549999999999997,0)" xlink:href="#aO"/><use transform="matrix(0.05,0,0,0.05,26.499999999999996,0)" xlink:href="#aQ"/><use transform="matrix(0.05,0,0,0.05,31.499999999999996,0)" xlink:href="#aR"/><use transform="matrix(0.05,0,0,0.05,41.5,0)" xlink:href="#bu"/><use transform="matrix(0.05,0,0,0.05,51.5,0)" xlink:href="#bd"/><use transform="matrix(0.05,0,0,0.05,61.5,0)" xlink:href="#bv"/><use transform="matrix(0.05,0,0,0.05,71.5,0)" xlink:href="#bu"/><use transform="matrix(0.05,0,0,0.05,81.5,0)" xlink:href="#aO"/><use transform="matrix(0.05,0,0,0.05,85.45,0)" xlink:href="#aP"/><use transform="matrix(0.05,0,0,0.05,95.45,0)" xlink:href="#aR"/><use transform="matrix(0.05,0,0,0.05,105.45,0)" xlink:href="#bl"/><use transform="matrix(0.05,0,0,0.05,111.4,0)" xlink:href="#bj"/><use transform="matrix(0.05,0,0,0.05,115.35000000000001,0)" xlink:href="#bd"/><use transform="matrix(0.05,0,0,0.05,125.35000000000001,0)" xlink:href="#bv"/><use transform="matrix(0.05,0,0,0.05,135.35000000000002,0)" xlink:href="#bu"/><use transform="matrix(0.05,0,0,0.05,145.35000000000002,0)" xlink:href="#aO"/><use transform="matrix(0.05,0,0,0.05,149.3,0)" xlink:href="#aP"/><use transform="matrix(0.05,0,0,0.05,159.3,0)" xlink:href="#aR"/><use transform="matrix(0.05,0,0,0.05,169.3,0)" xlink:href="#bn"/></g><g id="r"><use transform="matrix(0.05,0,0,0.05,0,0)" xlink:href="#bu"/><use transform="matrix(0.05,0,0,0.05,10,0)" xlink:href="#bd"/><use transform="matrix(0.05,0,0,0.05,20,0)" xlink:href="#bv"/><use transform="matrix(0.05,0,0,0.05,30,0)" xlink:href="#bu"/><use transform="matrix(0.05,0,0,0.05,40,0)" xlink:href="#aO"/><use transform="matrix(0.05,0,0,0.05,43.95,0)" xlink:href="#aP"/><use transform="matrix(0.05,0,0,0.05,53.95,0)" xlink:href="#aR"/><use transform="matrix(0.05,0,0,0.05,63.95,0)" xlink:href="#bm"/><use transform="matrix(0.05,0,0,0.05,69.9,0)" xlink:href="#bn"/></g><path fill="#333" d="M127-220V0H93v-220H8v-28h204v28h-85" id="bw"/><path fill="#333" d="M143 0L79-87 56-68V0H24v-261h32v163l83-92h37l-77 82L181 0h-38" id="bx"/><g id="s"><use transform="matrix(0.05,0,0,0.05,0,0)" xlink:href="#bw"/><use transform="matrix(0.05,0,0,0.05,8.950000000000001,0)" xlink:href="#aU"/><use transform="matrix(0.05,0,0,0.05,18.950000000000003,0)" xlink:href="#bk"/><use transform="matrix(0.05,0,0,0.05,27.950000000000003,0)" xlink:href="#bx"/></g><g id="t"><use transform="matrix(0.05,0,0,0.05,0,0)" xlink:href="#aY"/><use transform="matrix(0.05,0,0,0.05,10.950000000000001,0)" xlink:href="#aZ"/><use transform="matrix(0.05,0,0,0.05,21.900000000000002,0)" xlink:href="#ba"/></g><path fill="#333" d="M16-82v-28h88v28H16" id="by"/><use transform="matrix(0.05,0,0,0.05,0,0)" xlink:href="#by" id="u"/><g id="v"><use transform="matrix(0.05,0,0,0.05,0,0)" xlink:href="#aS"/><use transform="matrix(0.05,0,0,0.05,5.95,0)" xlink:href="#bh"/><use transform="matrix(0.05,0,0,0.05,15.949999999999998,0)" xlink:href="#aP"/><use transform="matrix(0.05,0,0,0.05,25.950000000000003,0)" xlink:href="#bw"/><use transform="matrix(0.05,0,0,0.05,34.9,0)" xlink:href="#aU"/><use transform="matrix(0.05,0,0,0.05,44.9,0)" xlink:href="#bk"/><use transform="matrix(0.05,0,0,0.05,53.900000000000006,0)" xlink:href="#bx"/><use transform="matrix(0.05,0,0,0.05,62.900000000000006,0)" xlink:href="#bn"/></g><g id="w"><use transform="matrix(0.05,0,0,0.05,0,0)" xlink:href="#bw"/><use transform="matrix(0.05,0,0,0.05,8.950000000000001,0)" xlink:href="#aU"/><use transform="matrix(0.05,0,0,0.05,18.950000000000003,0)" xlink:href="#bk"/><use transform="matrix(0.05,0,0,0.05,27.950000000000003,0)" xlink:href="#bx"/></g><g id="x"><use transform="matrix(0.05,0,0,0.05,0,0)" xlink:href="#aV"/><use transform="matrix(0.05,0,0,0.05,9,0)" xlink:href="#aU"/><use transform="matrix(0.05,0,0,0.05,19,0)" xlink:href="#aP"/><use transform="matrix(0.05,0,0,0.05,29,0)" xlink:href="#aV"/><use transform="matrix(0.05,0,0,0.05,38,0)" xlink:href="#aR"/><use transform="matrix(0.05,0,0,0.05,48,0)" xlink:href="#bj"/><use transform="matrix(0.05,0,0,0.05,51.95,0)" xlink:href="#bj"/><use transform="matrix(0.05,0,0,0.05,55.900000000000006,0)" xlink:href="#aU"/><use transform="matrix(0.05,0,0,0.05,65.9,0)" xlink:href="#aQ"/><use transform="matrix(0.05,0,0,0.05,70.9,0)" xlink:href="#aO"/><use transform="matrix(0.05,0,0,0.05,74.85000000000001,0)" xlink:href="#bd"/><use transform="matrix(0.05,0,0,0.05,84.85000000000001,0)" xlink:href="#aP"/><use transform="matrix(0.05,0,0,0.05,94.85000000000001,0)" xlink:href="#bw"/><use transform="matrix(0.05,0,0,0.05,103.80000000000001,0)" xlink:href="#bd"/><use transform="matrix(0.05,0,0,0.05,113.80000000000001,0)" xlink:href="#bx"/><use transform="matrix(0.05,0,0,0.05,122.80000000000001,0)" xlink:href="#aR"/><use transform="matrix(0.05,0,0,0.05,132.8,0)" xlink:href="#aP"/><use transform="matrix(0.05,0,0,0.05,142.8,0)" xlink:href="#bn"/></g><path fill="#333" d="M212-179c-10-28-35-45-73-45-59 0-87 40-87 99 0 60 29 101 89 101 43 0 62-24 78-52l27 14C228-24 195 4 139 4 59 4 22-46 18-125c-6-104 99-153 187-111 19 9 31 26 39 46" id="bz"/><g id="y"><use transform="matrix(0.05,0,0,0.05,0,0)" xlink:href="#bz"/><use transform="matrix(0.05,0,0,0.05,12.950000000000001,0)" xlink:href="#aU"/><use transform="matrix(0.05,0,0,0.05,22.950000000000003,0)" xlink:href="#aP"/><use transform="matrix(0.05,0,0,0.05,32.95,0)" xlink:href="#aV"/><use transform="matrix(0.05,0,0,0.05,41.95,0)" xlink:href="#aR"/><use transform="matrix(0.05,0,0,0.05,51.95,0)" xlink:href="#bj"/><use transform="matrix(0.05,0,0,0.05,55.900000000000006,0)" xlink:href="#bj"/><use transform="matrix(0.05,0,0,0.05,59.85,0)" xlink:href="#aU"/><use transform="matrix(0.05,0,0,0.05,69.85000000000001,0)" xlink:href="#aQ"/><use transform="matrix(0.05,0,0,0.05,74.85000000000001,0)" xlink:href="#aO"/><use transform="matrix(0.05,0,0,0.05,78.80000000000001,0)" xlink:href="#bd"/><use transform="matrix(0.05,0,0,0.05,88.80000000000001,0)" xlink:href="#aP"/><use transform="matrix(0.05,0,0,0.05,98.80000000000001,0)" xlink:href="#bw"/><use transform="matrix(0.05,0,0,0.05,107.75,0)" xlink:href="#bd"/><use transform="matrix(0.05,0,0,0.05,117.75,0)" xlink:href="#bx"/><use transform="matrix(0.05,0,0,0.05,126.75,0)" xlink:href="#aR"/><use transform="matrix(0.05,0,0,0.05,136.75,0)" xlink:href="#aP"/><use transform="matrix(0.05,0,0,0.05,146.75,0)" xlink:href="#bc"/><use transform="matrix(0.05,0,0,0.05,158.75,0)" xlink:href="#bd"/><use transform="matrix(0.05,0,0,0.05,168.75,0)" xlink:href="#bh"/><use transform="matrix(0.05,0,0,0.05,178.75,0)" xlink:href="#aS"/><use transform="matrix(0.05,0,0,0.05,184.7,0)" xlink:href="#aV"/><use transform="matrix(0.05,0,0,0.05,193.7,0)" xlink:href="#aR"/></g><path fill="#333" d="M141 0L90-78 38 0H4l68-98-65-92h35l48 74 47-74h35l-64 92 68 98h-35" id="bA"/><g id="z"><use transform="matrix(0.05,0,0,0.05,0,0)" xlink:href="#aR"/><use transform="matrix(0.05,0,0,0.05,10,0)" xlink:href="#bA"/><use transform="matrix(0.05,0,0,0.05,19,0)" xlink:href="#aQ"/><use transform="matrix(0.05,0,0,0.05,24,0)" xlink:href="#aO"/><use transform="matrix(0.05,0,0,0.05,27.950000000000003,0)" xlink:href="#bn"/></g><path fill="#333" d="M115-194c53 0 69 39 70 98 0 66-23 100-70 100C84 3 66-7 56-30L54 0H23l1-261h32v101c10-23 28-34 59-34zm-8 174c40 0 45-34 45-75 0-40-5-75-45-74-42 0-51 32-51 76 0 43 10 73 51 73" id="bB"/><g id="A"><use transform="matrix(0.05,0,0,0.05,0,0)" xlink:href="#bB"/><use transform="matrix(0.05,0,0,0.05,10,0)" xlink:href="#bd"/><use transform="matrix(0.05,0,0,0.05,20,0)" xlink:href="#bd"/><use transform="matrix(0.05,0,0,0.05,30,0)" xlink:href="#bj"/></g><path fill="#333" d="M145-31C134-9 116 4 85 4 32 4 16-35 15-94c0-59 17-99 70-100 32-1 48 14 60 33 0-11-1-24 2-32h30l-1 268h-32zM93-21c41 0 51-33 51-76s-8-73-50-73c-40 0-46 35-46 75s5 74 45 74" id="bC"/><g id="B"><use transform="matrix(0.05,0,0,0.05,0,0)" xlink:href="#bC"/><use transform="matrix(0.05,0,0,0.05,10,0)" xlink:href="#bh"/><use transform="matrix(0.05,0,0,0.05,20,0)" xlink:href="#aO"/><use transform="matrix(0.05,0,0,0.05,23.95,0)" xlink:href="#aQ"/><use transform="matrix(0.05,0,0,0.05,28.950000000000003,0)" xlink:href="#bf"/><use transform="matrix(0.05,0,0,0.05,45.9,0)" xlink:href="#aO"/><use transform="matrix(0.05,0,0,0.05,49.85,0)" xlink:href="#aQ"/><use transform="matrix(0.05,0,0,0.05,54.85,0)" xlink:href="#bg"/><use transform="matrix(0.05,0,0,0.05,64.85,0)" xlink:href="#bi"/><use transform="matrix(0.05,0,0,0.05,75.8,0)" xlink:href="#bj"/><use transform="matrix(0.05,0,0,0.05,79.75,0)" xlink:href="#bh"/><use transform="matrix(0.05,0,0,0.05,89.75,0)" xlink:href="#bk"/><use transform="matrix(0.05,0,0,0.05,98.75,0)" xlink:href="#bg"/><use transform="matrix(0.05,0,0,0.05,108.75,0)" xlink:href="#bn"/></g><g id="C"><use transform="matrix(0.05,0,0,0.05,0,0)" xlink:href="#bB"/><use transform="matrix(0.05,0,0,0.05,10,0)" xlink:href="#bd"/><use transform="matrix(0.05,0,0,0.05,20,0)" xlink:href="#bd"/><use transform="matrix(0.05,0,0,0.05,30,0)" xlink:href="#bj"/></g><path fill="#333" d="M179-190L93 31C79 59 56 82 12 73V49c39 6 53-20 64-50L1-190h34L92-34l54-156h33" id="bD"/><path fill="#333" d="M210-169c-67 3-38 105-44 169h-31v-121c0-29-5-50-35-48C34-165 62-65 56 0H25l-1-190h30c1 10-1 24 2 32 10-44 99-50 107 0 11-21 27-35 58-36 85-2 47 119 55 194h-31v-121c0-29-5-49-35-48" id="bE"/><g id="D"><use transform="matrix(0.05,0,0,0.05,0,0)" xlink:href="#bu"/><use transform="matrix(0.05,0,0,0.05,10,0)" xlink:href="#bd"/><use transform="matrix(0.05,0,0,0.05,20,0)" xlink:href="#bv"/><use transform="matrix(0.05,0,0,0.05,30,0)" xlink:href="#bl"/><use transform="matrix(0.05,0,0,0.05,35.95,0)" xlink:href="#bk"/><use transform="matrix(0.05,0,0,0.05,44.95,0)" xlink:href="#bD"/><use transform="matrix(0.05,0,0,0.05,53.95,0)" xlink:href="#bk"/><use transform="matrix(0.05,0,0,0.05,62.95,0)" xlink:href="#aQ"/><use transform="matrix(0.05,0,0,0.05,67.95,0)" xlink:href="#aR"/><use transform="matrix(0.05,0,0,0.05,77.95,0)" xlink:href="#bE"/><use transform="matrix(0.05,0,0,0.05,92.9,0)" xlink:href="#bz"/><use transform="matrix(0.05,0,0,0.05,105.85000000000001,0)" xlink:href="#bj"/><use transform="matrix(0.05,0,0,0.05,109.80000000000001,0)" xlink:href="#bd"/><use transform="matrix(0.05,0,0,0.05,119.80000000000001,0)" xlink:href="#aV"/><use transform="matrix(0.05,0,0,0.05,128.8,0)" xlink:href="#bx"/><use transform="matrix(0.05,0,0,0.05,137.8,0)" xlink:href="#bn"/></g><path fill="#333" d="M33 0v-248h34V0H33" id="bF"/><path fill="#333" d="M68-36c1 33-1 63-14 82H32c9-13 17-26 17-46H33v-36h35zM33-154v-36h35v36H33" id="bG"/><g id="E"><use transform="matrix(0.05,0,0,0.05,0,0)" xlink:href="#bF"/><use transform="matrix(0.05,0,0,0.05,5,0)" xlink:href="#bc"/><use transform="matrix(0.05,0,0,0.05,17,0)" xlink:href="#bD"/><use transform="matrix(0.05,0,0,0.05,26,0)" xlink:href="#bk"/><use transform="matrix(0.05,0,0,0.05,35,0)" xlink:href="#aQ"/><use transform="matrix(0.05,0,0,0.05,40,0)" xlink:href="#aR"/><use transform="matrix(0.05,0,0,0.05,50,0)" xlink:href="#bE"/><use transform="matrix(0.05,0,0,0.05,64.95,0)" xlink:href="#bz"/><use transform="matrix(0.05,0,0,0.05,77.9,0)" xlink:href="#bj"/><use transform="matrix(0.05,0,0,0.05,81.85000000000001,0)" xlink:href="#bd"/><use transform="matrix(0.05,0,0,0.05,91.85000000000001,0)" xlink:href="#aV"/><use transform="matrix(0.05,0,0,0.05,100.85000000000001,0)" xlink:href="#bx"/><use transform="matrix(0.05,0,0,0.05,109.85000000000001,0)" xlink:href="#bG"/></g><path fill="#333" d="M30-248c87 1 191-15 191 75 0 78-77 80-158 76V0H30v-248zm33 125c57 0 124 11 124-50 0-59-68-47-124-48v98" id="bH"/><g id="F"><use transform="matrix(0.05,0,0,0.05,0,0)" xlink:href="#bj"/><use transform="matrix(0.05,0,0,0.05,3.95,0)" xlink:href="#bd"/><use transform="matrix(0.05,0,0,0.05,13.949999999999998,0)" xlink:href="#bv"/><use transform="matrix(0.05,0,0,0.05,23.95,0)" xlink:href="#bH"/><use transform="matrix(0.05,0,0,0.05,35.95,0)" xlink:href="#aS"/><use transform="matrix(0.05,0,0,0.05,41.900000000000006,0)" xlink:href="#bd"/><use transform="matrix(0.05,0,0,0.05,51.900000000000006,0)" xlink:href="#aV"/><use transform="matrix(0.05,0,0,0.05,60.900000000000006,0)" xlink:href="#aR"/><use transform="matrix(0.05,0,0,0.05,70.9,0)" xlink:href="#bk"/><use transform="matrix(0.05,0,0,0.05,79.9,0)" xlink:href="#bk"/><use transform="matrix(0.05,0,0,0.05,88.9,0)" xlink:href="#bd"/><use transform="matrix(0.05,0,0,0.05,98.9,0)" xlink:href="#aS"/><use transform="matrix(0.05,0,0,0.05,104.85000000000001,0)" xlink:href="#bn"/></g><g id="G"><use transform="matrix(0.05,0,0,0.05,0,0)" xlink:href="#bF"/><use transform="matrix(0.05,0,0,0.05,5,0)" xlink:href="#bu"/><use transform="matrix(0.05,0,0,0.05,15,0)" xlink:href="#bd"/><use transform="matrix(0.05,0,0,0.05,25,0)" xlink:href="#bv"/><use transform="matrix(0.05,0,0,0.05,35,0)" xlink:href="#bH"/><use transform="matrix(0.05,0,0,0.05,47,0)" xlink:href="#aS"/><use transform="matrix(0.05,0,0,0.05,52.95,0)" xlink:href="#bd"/><use transform="matrix(0.05,0,0,0.05,62.95,0)" xlink:href="#aV"/><use transform="matrix(0.05,0,0,0.05,71.95,0)" xlink:href="#aR"/><use transform="matrix(0.05,0,0,0.05,81.95,0)" xlink:href="#bk"/><use transform="matrix(0.05,0,0,0.05,90.95,0)" xlink:href="#bk"/><use transform="matrix(0.05,0,0,0.05,99.95,0)" xlink:href="#bd"/><use transform="matrix(0.05,0,0,0.05,109.95,0)" xlink:href="#aS"/><use transform="matrix(0.05,0,0,0.05,115.9,0)" xlink:href="#bm"/></g><g id="H"><use transform="matrix(0.05,0,0,0.05,0,0)" xlink:href="#bH"/><use transform="matrix(0.05,0,0,0.05,12,0)" xlink:href="#aR"/><use transform="matrix(0.05,0,0,0.05,22,0)" xlink:href="#aS"/><use transform="matrix(0.05,0,0,0.05,27.950000000000003,0)" xlink:href="#aT"/><use transform="matrix(0.05,0,0,0.05,32.95,0)" xlink:href="#bd"/><use transform="matrix(0.05,0,0,0.05,42.95,0)" xlink:href="#aS"/><use transform="matrix(0.05,0,0,0.05,48.900000000000006,0)" xlink:href="#bE"/><use transform="matrix(0.05,0,0,0.05,63.85,0)" xlink:href="#bu"/><use transform="matrix(0.05,0,0,0.05,73.85000000000001,0)" xlink:href="#bd"/><use transform="matrix(0.05,0,0,0.05,83.85000000000001,0)" xlink:href="#bv"/><use transform="matrix(0.05,0,0,0.05,93.85000000000001,0)" xlink:href="#bv"/><use transform="matrix(0.05,0,0,0.05,103.85000000000001,0)" xlink:href="#aO"/><use transform="matrix(0.05,0,0,0.05,107.80000000000001,0)" xlink:href="#aP"/><use transform="matrix(0.05,0,0,0.05,117.80000000000001,0)" xlink:href="#bv"/><use transform="matrix(0.05,0,0,0.05,127.80000000000001,0)" xlink:href="#bl"/><use transform="matrix(0.05,0,0,0.05,133.75,0)" xlink:href="#bm"/><use transform="matrix(0.05,0,0,0.05,139.7,0)" xlink:href="#bn"/></g><g id="I"><use transform="matrix(0.05,0,0,0.05,0,0)" xlink:href="#aY"/><use transform="matrix(0.05,0,0,0.05,10.950000000000001,0)" xlink:href="#aZ"/><use transform="matrix(0.05,0,0,0.05,21.900000000000002,0)" xlink:href="#ba"/><use transform="matrix(0.05,0,0,0.05,32.85,0)" xlink:href="#bq"/><use transform="matrix(0.05,0,0,0.05,43.800000000000004,0)" xlink:href="#br"/><use transform="matrix(0.05,0,0,0.05,48.800000000000004,0)" xlink:href="#bs"/><use transform="matrix(0.05,0,0,0.05,53.800000000000004,0)" xlink:href="#bt"/></g><g id="J"><use transform="matrix(0.05,0,0,0.05,0,0)" xlink:href="#bj"/><use transform="matrix(0.05,0,0,0.05,3.95,0)" xlink:href="#bd"/><use transform="matrix(0.05,0,0,0.05,13.949999999999998,0)" xlink:href="#aV"/><use transform="matrix(0.05,0,0,0.05,22.95,0)" xlink:href="#bx"/><use transform="matrix(0.05,0,0,0.05,31.950000000000003,0)" xlink:href="#bn"/></g><g id="K"><use transform="matrix(0.05,0,0,0.05,0,0)" xlink:href="#bc"/><use transform="matrix(0.05,0,0,0.05,12,0)" xlink:href="#aR"/><use transform="matrix(0.05,0,0,0.05,22,0)" xlink:href="#bE"/><use transform="matrix(0.05,0,0,0.05,36.95,0)" xlink:href="#aU"/><use transform="matrix(0.05,0,0,0.05,46.95,0)" xlink:href="#be"/><use transform="matrix(0.05,0,0,0.05,56.95,0)" xlink:href="#bg"/><use transform="matrix(0.05,0,0,0.05,66.95,0)" xlink:href="#bd"/><use transform="matrix(0.05,0,0,0.05,76.95,0)" xlink:href="#aS"/><use transform="matrix(0.05,0,0,0.05,82.9,0)" xlink:href="#aR"/><use transform="matrix(0.05,0,0,0.05,92.9,0)" xlink:href="#bc"/><use transform="matrix(0.05,0,0,0.05,104.9,0)" xlink:href="#bj"/><use transform="matrix(0.05,0,0,0.05,108.85000000000001,0)" xlink:href="#aO"/><use transform="matrix(0.05,0,0,0.05,112.80000000000001,0)" xlink:href="#bE"/></g><path fill="#333" d="M206 0h-36l-40-164L89 0H53L-1-190h32L70-26l43-164h34l41 164 42-164h31" id="bI"/><g id="L"><use transform="matrix(0.05,0,0,0.05,0,0)" xlink:href="#bI"/><use transform="matrix(0.05,0,0,0.05,12.950000000000001,0)" xlink:href="#aS"/><use transform="matrix(0.05,0,0,0.05,18.900000000000002,0)" xlink:href="#aO"/><use transform="matrix(0.05,0,0,0.05,22.85,0)" xlink:href="#aQ"/><use transform="matrix(0.05,0,0,0.05,27.85,0)" xlink:href="#aR"/><use transform="matrix(0.05,0,0,0.05,37.85,0)" xlink:href="#aS"/><use transform="matrix(0.05,0,0,0.05,43.800000000000004,0)" xlink:href="#bn"/></g><g id="M"><use transform="matrix(0.05,0,0,0.05,0,0)" xlink:href="#bc"/><use transform="matrix(0.05,0,0,0.05,12,0)" xlink:href="#aQ"/><use transform="matrix(0.05,0,0,0.05,17,0)" xlink:href="#aS"/><use transform="matrix(0.05,0,0,0.05,22.95,0)" xlink:href="#aR"/><use transform="matrix(0.05,0,0,0.05,32.95,0)" xlink:href="#aU"/><use transform="matrix(0.05,0,0,0.05,42.95,0)" xlink:href="#bE"/><use transform="matrix(0.05,0,0,0.05,57.900000000000006,0)" xlink:href="#bf"/><use transform="matrix(0.05,0,0,0.05,74.5,0)" xlink:href="#aS"/><use transform="matrix(0.05,0,0,0.05,80.45,0)" xlink:href="#aO"/><use transform="matrix(0.05,0,0,0.05,84.4,0)" xlink:href="#aQ"/><use transform="matrix(0.05,0,0,0.05,89.4,0)" xlink:href="#aR"/><use transform="matrix(0.05,0,0,0.05,99.4,0)" xlink:href="#aS"/></g><path fill="#333" d="M30-248c118-7 216 8 213 122C240-48 200 0 122 0H30v-248zM63-27c89 8 146-16 146-99s-60-101-146-95v194" id="bJ"/><g id="N"><use transform="matrix(0.05,0,0,0.05,0,0)" xlink:href="#aV"/><use transform="matrix(0.05,0,0,0.05,9,0)" xlink:href="#bh"/><use transform="matrix(0.05,0,0,0.05,19,0)" xlink:href="#aS"/><use transform="matrix(0.05,0,0,0.05,24.95,0)" xlink:href="#aS"/><use transform="matrix(0.05,0,0,0.05,30.899999999999995,0)" xlink:href="#aR"/><use transform="matrix(0.05,0,0,0.05,40.9,0)" xlink:href="#aP"/><use transform="matrix(0.05,0,0,0.05,50.9,0)" xlink:href="#aQ"/><use transform="matrix(0.05,0,0,0.05,55.900000000000006,0)" xlink:href="#bJ"/><use transform="matrix(0.05,0,0,0.05,68.85,0)" xlink:href="#aU"/><use transform="matrix(0.05,0,0,0.05,78.85,0)" xlink:href="#aQ"/><use transform="matrix(0.05,0,0,0.05,83.85,0)" xlink:href="#aR"/><use transform="matrix(0.05,0,0,0.05,93.85,0)" xlink:href="#bn"/></g><g id="O"><use transform="matrix(0.05,0,0,0.05,0,0)" xlink:href="#bJ"/><use transform="matrix(0.05,0,0,0.05,12.950000000000001,0)" xlink:href="#aU"/><use transform="matrix(0.05,0,0,0.05,22.950000000000003,0)" xlink:href="#aQ"/><use transform="matrix(0.05,0,0,0.05,27.950000000000003,0)" xlink:href="#aR"/><use transform="matrix(0.05,0,0,0.05,37.95,0)" xlink:href="#bw"/><use transform="matrix(0.05,0,0,0.05,48.25000000000001,0)" xlink:href="#aO"/><use transform="matrix(0.05,0,0,0.05,52.20000000000002,0)" xlink:href="#bE"/><use transform="matrix(0.05,0,0,0.05,67.15,0)" xlink:href="#aR"/></g><g id="P"><use transform="matrix(0.05,0,0,0.05,0,0)" xlink:href="#bu"/><use transform="matrix(0.05,0,0,0.05,10,0)" xlink:href="#bd"/><use transform="matrix(0.05,0,0,0.05,20,0)" xlink:href="#bv"/><use transform="matrix(0.05,0,0,0.05,30,0)" xlink:href="#bi"/><use transform="matrix(0.05,0,0,0.05,40.95,0)" xlink:href="#aO"/><use transform="matrix(0.05,0,0,0.05,44.900000000000006,0)" xlink:href="#bj"/><use transform="matrix(0.05,0,0,0.05,48.85000000000001,0)" xlink:href="#aR"/><use transform="matrix(0.05,0,0,0.05,58.85,0)" xlink:href="#bl"/><use transform="matrix(0.05,0,0,0.05,64.80000000000001,0)" xlink:href="#bk"/><use transform="matrix(0.05,0,0,0.05,73.80000000000001,0)" xlink:href="#bD"/><use transform="matrix(0.05,0,0,0.05,82.80000000000001,0)" xlink:href="#bk"/><use transform="matrix(0.05,0,0,0.05,91.80000000000001,0)" xlink:href="#aQ"/><use transform="matrix(0.05,0,0,0.05,96.80000000000001,0)" xlink:href="#aR"/><use transform="matrix(0.05,0,0,0.05,106.80000000000001,0)" xlink:href="#bE"/><use transform="matrix(0.05,0,0,0.05,121.75,0)" xlink:href="#bz"/><use transform="matrix(0.05,0,0,0.05,134.70000000000002,0)" xlink:href="#bj"/><use transform="matrix(0.05,0,0,0.05,138.65,0)" xlink:href="#bd"/><use transform="matrix(0.05,0,0,0.05,148.65,0)" xlink:href="#aV"/><use transform="matrix(0.05,0,0,0.05,157.65,0)" xlink:href="#bx"/><use transform="matrix(0.05,0,0,0.05,166.65,0)" xlink:href="#bn"/></g><g id="Q"><use transform="matrix(0.05,0,0,0.05,0,0)" xlink:href="#bF"/><use transform="matrix(0.05,0,0,0.05,5,0)" xlink:href="#bc"/><use transform="matrix(0.05,0,0,0.05,17,0)" xlink:href="#bD"/><use transform="matrix(0.05,0,0,0.05,26,0)" xlink:href="#bk"/><use transform="matrix(0.05,0,0,0.05,35,0)" xlink:href="#aQ"/><use transform="matrix(0.05,0,0,0.05,40,0)" xlink:href="#aR"/><use transform="matrix(0.05,0,0,0.05,50,0)" xlink:href="#bE"/><use transform="matrix(0.05,0,0,0.05,64.95,0)" xlink:href="#bz"/><use transform="matrix(0.05,0,0,0.05,77.9,0)" xlink:href="#bj"/><use transform="matrix(0.05,0,0,0.05,81.85000000000001,0)" xlink:href="#bd"/><use transform="matrix(0.05,0,0,0.05,91.85000000000001,0)" xlink:href="#aV"/><use transform="matrix(0.05,0,0,0.05,100.85000000000001,0)" xlink:href="#bx"/><use transform="matrix(0.05,0,0,0.05,109.85000000000001,0)" xlink:href="#bm"/></g><g id="R"><use transform="matrix(0.05,0,0,0.05,0,0)" xlink:href="#bz"/><use transform="matrix(0.05,0,0,0.05,12.950000000000001,0)" xlink:href="#bj"/><use transform="matrix(0.05,0,0,0.05,16.900000000000002,0)" xlink:href="#bd"/><use transform="matrix(0.05,0,0,0.05,26.900000000000002,0)" xlink:href="#bk"/><use transform="matrix(0.05,0,0,0.05,35.900000000000006,0)" xlink:href="#aR"/><use transform="matrix(0.05,0,0,0.05,45.900000000000006,0)" xlink:href="#bl"/><use transform="matrix(0.05,0,0,0.05,51.85,0)" xlink:href="#bm"/><use transform="matrix(0.05,0,0,0.05,57.80000000000001,0)" xlink:href="#bn"/></g><path fill="#333" d="M143 4C61 4 22-44 18-125c-5-107 100-154 193-111 17 8 29 25 37 43l-32 9c-13-25-37-40-76-40-61 0-88 39-88 99 0 61 29 100 91 101 35 0 62-11 79-27v-45h-74v-28h105v86C228-13 192 4 143 4" id="bK"/><g id="S"><use transform="matrix(0.05,0,0,0.05,0,0)" xlink:href="#bK"/><use transform="matrix(0.05,0,0,0.05,14,0)" xlink:href="#aR"/><use transform="matrix(0.05,0,0,0.05,24,0)" xlink:href="#aQ"/><use transform="matrix(0.05,0,0,0.05,29,0)" xlink:href="#bu"/><use transform="matrix(0.05,0,0,0.05,39,0)" xlink:href="#bd"/><use transform="matrix(0.05,0,0,0.05,49,0)" xlink:href="#bv"/><use transform="matrix(0.05,0,0,0.05,59,0)" xlink:href="#bi"/><use transform="matrix(0.05,0,0,0.05,69.95,0)" xlink:href="#aO"/><use transform="matrix(0.05,0,0,0.05,73.9,0)" xlink:href="#bj"/><use transform="matrix(0.05,0,0,0.05,77.85000000000001,0)" xlink:href="#aR"/><use transform="matrix(0.05,0,0,0.05,87.85000000000001,0)" xlink:href="#bH"/><use transform="matrix(0.05,0,0,0.05,99.85000000000001,0)" xlink:href="#aU"/><use transform="matrix(0.05,0,0,0.05,109.85000000000001,0)" xlink:href="#aQ"/><use transform="matrix(0.05,0,0,0.05,114.85000000000001,0)" xlink:href="#bg"/><use transform="matrix(0.05,0,0,0.05,124.85000000000001,0)" xlink:href="#bl"/><use transform="matrix(0.05,0,0,0.05,130.8,0)" xlink:href="#bm"/><use transform="matrix(0.05,0,0,0.05,136.75,0)" xlink:href="#bn"/></g><g id="T"><use transform="matrix(0.05,0,0,0.05,0,0)" xlink:href="#bk"/><use transform="matrix(0.05,0,0,0.05,9,0)" xlink:href="#aQ"/><use transform="matrix(0.05,0,0,0.05,14,0)" xlink:href="#aS"/><use transform="matrix(0.05,0,0,0.05,19.95,0)" xlink:href="#aO"/><use transform="matrix(0.05,0,0,0.05,23.9,0)" xlink:href="#aP"/><use transform="matrix(0.05,0,0,0.05,33.9,0)" xlink:href="#bv"/></g><path fill="#333" d="M197 0v-115H63V0H30v-248h33v105h134v-105h34V0h-34" id="bL"/><g id="U"><use transform="matrix(0.05,0,0,0.05,0,0)" xlink:href="#bf"/><use transform="matrix(0.05,0,0,0.05,16.599999999999998,0)" xlink:href="#aS"/><use transform="matrix(0.05,0,0,0.05,22.549999999999997,0)" xlink:href="#aO"/><use transform="matrix(0.05,0,0,0.05,26.499999999999996,0)" xlink:href="#aQ"/><use transform="matrix(0.05,0,0,0.05,31.499999999999996,0)" xlink:href="#aR"/><use transform="matrix(0.05,0,0,0.05,41.5,0)" xlink:href="#bu"/><use transform="matrix(0.05,0,0,0.05,51.5,0)" xlink:href="#bd"/><use transform="matrix(0.05,0,0,0.05,61.5,0)" xlink:href="#bv"/><use transform="matrix(0.05,0,0,0.05,71.5,0)" xlink:href="#bL"/><use transform="matrix(0.05,0,0,0.05,84.45,0)" xlink:href="#aR"/><use transform="matrix(0.05,0,0,0.05,94.45,0)" xlink:href="#aU"/><use transform="matrix(0.05,0,0,0.05,104.45,0)" xlink:href="#bp"/><use transform="matrix(0.05,0,0,0.05,114.45,0)" xlink:href="#aR"/><use transform="matrix(0.05,0,0,0.05,124.45,0)" xlink:href="#aS"/><use transform="matrix(0.05,0,0,0.05,130.4,0)" xlink:href="#bl"/><use transform="matrix(0.05,0,0,0.05,136.35,0)" xlink:href="#bm"/><use transform="matrix(0.05,0,0,0.05,142.29999999999998,0)" xlink:href="#bn"/></g><g id="V"><use transform="matrix(0.05,0,0,0.05,0,0)" xlink:href="#bi"/><use transform="matrix(0.05,0,0,0.05,10.950000000000001,0)" xlink:href="#bd"/><use transform="matrix(0.05,0,0,0.05,20.950000000000003,0)" xlink:href="#aS"/><use transform="matrix(0.05,0,0,0.05,26.900000000000002,0)" xlink:href="#bE"/><use transform="matrix(0.05,0,0,0.05,41.85,0)" xlink:href="#aU"/><use transform="matrix(0.05,0,0,0.05,51.85,0)" xlink:href="#aQ"/><use transform="matrix(0.05,0,0,0.05,56.85,0)" xlink:href="#bu"/><use transform="matrix(0.05,0,0,0.05,66.85,0)" xlink:href="#bd"/><use transform="matrix(0.05,0,0,0.05,76.85,0)" xlink:href="#bv"/><use transform="matrix(0.05,0,0,0.05,86.85,0)" xlink:href="#bu"/><use transform="matrix(0.05,0,0,0.05,96.85,0)" xlink:href="#aO"/><use transform="matrix(0.05,0,0,0.05,100.8,0)" xlink:href="#aP"/><use transform="matrix(0.05,0,0,0.05,110.80000000000001,0)" xlink:href="#aR"/><use transform="matrix(0.05,0,0,0.05,120.80000000000001,0)" xlink:href="#bl"/><use transform="matrix(0.05,0,0,0.05,126.75,0)" xlink:href="#bm"/><use transform="matrix(0.05,0,0,0.05,132.7,0)" xlink:href="#bn"/></g><g id="W"><use transform="matrix(0.05,0,0,0.05,0,0)" xlink:href="#bk"/><use transform="matrix(0.05,0,0,0.05,9,0)" xlink:href="#aQ"/><use transform="matrix(0.05,0,0,0.05,14,0)" xlink:href="#aS"/><use transform="matrix(0.05,0,0,0.05,19.95,0)" xlink:href="#aO"/><use transform="matrix(0.05,0,0,0.05,23.9,0)" xlink:href="#aP"/><use transform="matrix(0.05,0,0,0.05,33.9,0)" xlink:href="#bv"/></g><path fill="#333" d="M135-194c87-1 58 113 63 194h-50c-7-57 23-157-34-157-59 0-34 97-39 157H25l-1-190h47c2 12-1 28 3 38 12-26 28-41 61-42" id="bM"/><g id="X"><use transform="matrix(0.05,0,0,0.05,0,0)" xlink:href="#aY"/><use transform="matrix(0.05,0,0,0.05,10.950000000000001,0)" xlink:href="#aZ"/><use transform="matrix(0.05,0,0,0.05,21.900000000000002,0)" xlink:href="#ba"/><use transform="matrix(0.05,0,0,0.05,32.85,0)" xlink:href="#aY"/><use transform="matrix(0.05,0,0,0.05,43.800000000000004,0)" xlink:href="#br"/><use transform="matrix(0.05,0,0,0.05,48.800000000000004,0)" xlink:href="#bM"/><use transform="matrix(0.05,0,0,0.05,59.75,0)" xlink:href="#bt"/></g><g id="Y"><use transform="matrix(0.05,0,0,0.05,0,0)" xlink:href="#bw"/><use transform="matrix(0.05,0,0,0.05,8.950000000000001,0)" xlink:href="#aR"/><use transform="matrix(0.05,0,0,0.05,18.950000000000003,0)" xlink:href="#bA"/><use transform="matrix(0.05,0,0,0.05,27.950000000000003,0)" xlink:href="#aQ"/><use transform="matrix(0.05,0,0,0.05,32.95,0)" xlink:href="#bn"/></g><g id="Z"><use transform="matrix(0.05,0,0,0.05,0,0)" xlink:href="#bw"/><use transform="matrix(0.05,0,0,0.05,10.3,0)" xlink:href="#aO"/><use transform="matrix(0.05,0,0,0.05,14.25,0)" xlink:href="#bE"/><use transform="matrix(0.05,0,0,0.05,29.200000000000003,0)" xlink:href="#aR"/><use transform="matrix(0.05,0,0,0.05,39.2,0)" xlink:href="#bk"/><use transform="matrix(0.05,0,0,0.05,48.2,0)" xlink:href="#aQ"/><use transform="matrix(0.05,0,0,0.05,53.2,0)" xlink:href="#aU"/><use transform="matrix(0.05,0,0,0.05,63.2,0)" xlink:href="#bE"/><use transform="matrix(0.05,0,0,0.05,78.15,0)" xlink:href="#be"/><use transform="matrix(0.05,0,0,0.05,88.15,0)" xlink:href="#bn"/></g><g id="aa"><use transform="matrix(0.05,0,0,0.05,0,0)" xlink:href="#bu"/><use transform="matrix(0.05,0,0,0.05,10,0)" xlink:href="#bd"/><use transform="matrix(0.05,0,0,0.05,20,0)" xlink:href="#bv"/><use transform="matrix(0.05,0,0,0.05,30,0)" xlink:href="#bu"/><use transform="matrix(0.05,0,0,0.05,40,0)" xlink:href="#aO"/><use transform="matrix(0.05,0,0,0.05,43.95,0)" xlink:href="#aP"/><use transform="matrix(0.05,0,0,0.05,53.95,0)" xlink:href="#aR"/><use transform="matrix(0.05,0,0,0.05,63.95,0)" xlink:href="#bl"/><use transform="matrix(0.05,0,0,0.05,69.9,0)" xlink:href="#bm"/></g><g id="ab"><use transform="matrix(0.05,0,0,0.05,0,0)" xlink:href="#bu"/><use transform="matrix(0.05,0,0,0.05,10,0)" xlink:href="#aO"/><use transform="matrix(0.05,0,0,0.05,13.949999999999998,0)" xlink:href="#aP"/><use transform="matrix(0.05,0,0,0.05,23.95,0)" xlink:href="#aR"/><use transform="matrix(0.05,0,0,0.05,33.95,0)" xlink:href="#bw"/><use transform="matrix(0.05,0,0,0.05,42.900000000000006,0)" xlink:href="#aR"/><use transform="matrix(0.05,0,0,0.05,52.900000000000006,0)" xlink:href="#bA"/><use transform="matrix(0.05,0,0,0.05,61.900000000000006,0)" xlink:href="#aQ"/><use transform="matrix(0.05,0,0,0.05,66.9,0)" xlink:href="#bl"/><use transform="matrix(0.05,0,0,0.05,72.85000000000001,0)" xlink:href="#bm"/><use transform="matrix(0.05,0,0,0.05,78.80000000000001,0)" xlink:href="#bn"/></g><g id="ac"><use transform="matrix(0.05,0,0,0.05,0,0)" xlink:href="#bz"/><use transform="matrix(0.05,0,0,0.05,12.950000000000001,0)" xlink:href="#aS"/><use transform="matrix(0.05,0,0,0.05,18.900000000000002,0)" xlink:href="#aR"/><use transform="matrix(0.05,0,0,0.05,28.900000000000002,0)" xlink:href="#aU"/><use transform="matrix(0.05,0,0,0.05,38.900000000000006,0)" xlink:href="#aQ"/><use transform="matrix(0.05,0,0,0.05,43.900000000000006,0)" xlink:href="#aR"/><use transform="matrix(0.05,0,0,0.05,53.900000000000006,0)" xlink:href="#bu"/><use transform="matrix(0.05,0,0,0.05,63.900000000000006,0)" xlink:href="#aO"/><use transform="matrix(0.05,0,0,0.05,67.85000000000001,0)" xlink:href="#aP"/><use transform="matrix(0.05,0,0,0.05,77.85000000000001,0)" xlink:href="#aR"/><use transform="matrix(0.05,0,0,0.05,87.85000000000001,0)" xlink:href="#bw"/><use transform="matrix(0.05,0,0,0.05,96.80000000000001,0)" xlink:href="#aR"/><use transform="matrix(0.05,0,0,0.05,106.80000000000001,0)" xlink:href="#bA"/><use transform="matrix(0.05,0,0,0.05,115.80000000000001,0)" xlink:href="#aQ"/><use transform="matrix(0.05,0,0,0.05,120.80000000000001,0)" xlink:href="#bl"/><use transform="matrix(0.05,0,0,0.05,126.75,0)" xlink:href="#bm"/><use transform="matrix(0.05,0,0,0.05,132.70000000000002,0)" xlink:href="#bn"/></g><path d="M27 0v-27h64v-190l-56 39v-29l58-41h29v221h61V0H27" id="bN"/><use transform="matrix(0.05,0,0,0.05,0,0)" xlink:href="#bN" id="ad"/><path d="M101-251c68 0 85 55 85 127S166 4 100 4C33 4 14-52 14-124c0-73 17-127 87-127zm-1 229c47 0 54-49 54-102s-4-102-53-102c-51 0-55 48-55 102 0 53 5 102 54 102" id="bO"/><path d="M33 0v-38h34V0H33" id="bP"/><path d="M80-196l47-18 7 23-49 13 32 44-20 13-27-46-27 45-21-12 33-44-49-13 8-23 47 19-2-53h23" id="bQ"/><g id="ae"><use transform="matrix(0.05,0,0,0.05,0,0)" xlink:href="#bO"/><use transform="matrix(0.05,0,0,0.05,10,0)" xlink:href="#bP"/><use transform="matrix(0.05,0,0,0.05,15,0)" xlink:href="#bP"/><use transform="matrix(0.05,0,0,0.05,20,0)" xlink:href="#bQ"/></g><path fill="#333" d="M169-182c-1-43-94-46-97-3 18 66 151 10 154 114 3 95-165 93-204 36-6-8-10-19-12-30l50-8c3 46 112 56 116 5-17-69-150-10-154-114-4-87 153-88 188-35 5 8 8 18 10 28" id="bR"/><path fill="#333" d="M123 10C108 53 80 86 19 72V37c35 8 53-11 59-39L3-190h52l48 148c12-52 28-100 44-148h51" id="bS"/><path fill="#333" d="M137-138c1-29-70-34-71-4 15 46 118 7 119 86 1 83-164 76-172 9l43-7c4 19 20 25 44 25 33 8 57-30 24-41C81-84 22-81 20-136c-2-80 154-74 161-7" id="bT"/><path fill="#333" d="M115-3C79 11 28 4 28-45v-112H4v-33h27l15-45h31v45h36v33H77v99c-1 23 16 31 38 25v30" id="bU"/><path fill="#333" d="M220-157c-53 9-28 100-34 157h-49v-107c1-27-5-49-29-50C55-147 81-57 75 0H25l-1-190h47c2 12-1 28 3 38 10-53 101-56 108 0 13-22 24-43 59-42 82 1 51 116 57 194h-49v-107c-1-25-5-48-29-50" id="bV"/><path fill="#333" d="M67-125c0 53 21 87 73 88 37 1 54-22 65-47l45 17C233-25 199 4 140 4 58 4 20-42 15-125 8-235 124-281 211-232c18 10 29 29 36 50l-46 12c-8-25-30-41-62-41-52 0-71 34-72 86" id="bW"/><path fill="#333" d="M190-63c-7 42-38 67-86 67-59 0-84-38-90-98-12-110 154-137 174-36l-49 2c-2-19-15-32-35-32-30 0-35 28-38 64-6 74 65 87 74 30" id="bX"/><path fill="#333" d="M147 0L96-86 75-71V0H25v-261h50v150l67-79h53l-66 74L201 0h-54" id="bY"/><g id="af"><use transform="matrix(0.05,0,0,0.05,0,0)" xlink:href="#aX"/><use transform="matrix(0.05,0,0,0.05,5,0)" xlink:href="#bR"/><use transform="matrix(0.05,0,0,0.05,17,0)" xlink:href="#bS"/><use transform="matrix(0.05,0,0,0.05,27,0)" xlink:href="#bT"/><use transform="matrix(0.05,0,0,0.05,37,0)" xlink:href="#bU"/><use transform="matrix(0.05,0,0,0.05,42.95,0)" xlink:href="#bt"/><use transform="matrix(0.05,0,0,0.05,52.95,0)" xlink:href="#bV"/><use transform="matrix(0.05,0,0,0.05,68.95,0)" xlink:href="#bW"/><use transform="matrix(0.05,0,0,0.05,81.9,0)" xlink:href="#bs"/><use transform="matrix(0.05,0,0,0.05,86.9,0)" xlink:href="#aZ"/><use transform="matrix(0.05,0,0,0.05,97.85000000000001,0)" xlink:href="#bX"/><use transform="matrix(0.05,0,0,0.05,107.85000000000001,0)" xlink:href="#bY"/></g><path fill="#333" d="M190 0L58-211 59 0H30v-248h39L202-35l-2-213h31V0h-41" id="bZ"/><g id="ag"><use transform="matrix(0.05,0,0,0.05,0,0)" xlink:href="#bZ"/><use transform="matrix(0.05,0,0,0.05,12.950000000000001,0)" xlink:href="#bd"/><use transform="matrix(0.05,0,0,0.05,22.950000000000003,0)" xlink:href="#bI"/><use transform="matrix(0.05,0,0,0.05,35.900000000000006,0)" xlink:href="#bn"/></g><path fill="#333" d="M136-208V0H84v-208H4v-40h212v40h-80" id="ca"/><g id="ah"><use transform="matrix(0.05,0,0,0.05,0,0)" xlink:href="#ca"/><use transform="matrix(0.05,0,0,0.05,9.600000000000001,0)" xlink:href="#bt"/><use transform="matrix(0.05,0,0,0.05,19.6,0)" xlink:href="#bT"/><use transform="matrix(0.05,0,0,0.05,29.6,0)" xlink:href="#bU"/><use transform="matrix(0.05,0,0,0.05,35.550000000000004,0)" xlink:href="#bR"/><use transform="matrix(0.05,0,0,0.05,47.550000000000004,0)" xlink:href="#bS"/><use transform="matrix(0.05,0,0,0.05,57.550000000000004,0)" xlink:href="#bT"/><use transform="matrix(0.05,0,0,0.05,67.55000000000001,0)" xlink:href="#bU"/><use transform="matrix(0.05,0,0,0.05,73.50000000000001,0)" xlink:href="#bt"/><use transform="matrix(0.05,0,0,0.05,83.50000000000001,0)" xlink:href="#bV"/><use transform="matrix(0.05,0,0,0.05,99.50000000000001,0)" xlink:href="#bW"/><use transform="matrix(0.05,0,0,0.05,112.45,0)" xlink:href="#bs"/><use transform="matrix(0.05,0,0,0.05,117.45,0)" xlink:href="#aZ"/><use transform="matrix(0.05,0,0,0.05,128.4,0)" xlink:href="#bX"/><use transform="matrix(0.05,0,0,0.05,138.4,0)" xlink:href="#bY"/></g><path fill="#333" d="M24-248c93 1 206-16 204 79-1 75-69 88-152 82V0H24v-248zm52 121c47 0 100 7 100-41 0-47-54-39-100-39v80" id="cb"/><path fill="#333" d="M135-150c-39-12-60 13-60 57V0H25l-1-190h47c2 13-1 29 3 40 6-28 27-53 61-41v41" id="cc"/><g id="ai"><use transform="matrix(0.05,0,0,0.05,0,0)" xlink:href="#aX"/><use transform="matrix(0.05,0,0,0.05,5,0)" xlink:href="#aY"/><use transform="matrix(0.05,0,0,0.05,15.950000000000001,0)" xlink:href="#aZ"/><use transform="matrix(0.05,0,0,0.05,26.900000000000002,0)" xlink:href="#ba"/><use transform="matrix(0.05,0,0,0.05,37.85,0)" xlink:href="#cb"/><use transform="matrix(0.05,0,0,0.05,49.85,0)" xlink:href="#cc"/><use transform="matrix(0.05,0,0,0.05,56.85,0)" xlink:href="#aZ"/><use transform="matrix(0.05,0,0,0.05,67.8,0)" xlink:href="#bX"/><use transform="matrix(0.05,0,0,0.05,77.8,0)" xlink:href="#bt"/><use transform="matrix(0.05,0,0,0.05,87.8,0)" xlink:href="#bT"/><use transform="matrix(0.05,0,0,0.05,97.8,0)" xlink:href="#bT"/><use transform="matrix(0.05,0,0,0.05,107.80000000000001,0)" xlink:href="#aZ"/><use transform="matrix(0.05,0,0,0.05,118.75,0)" xlink:href="#cc"/></g><g id="aj"><use transform="matrix(0.05,0,0,0.05,0,0)" xlink:href="#bH"/><use transform="matrix(0.05,0,0,0.05,12,0)" xlink:href="#aS"/><use transform="matrix(0.05,0,0,0.05,17.95,0)" xlink:href="#bd"/><use transform="matrix(0.05,0,0,0.05,27.950000000000003,0)" xlink:href="#aV"/><use transform="matrix(0.05,0,0,0.05,36.95,0)" xlink:href="#aR"/><use transform="matrix(0.05,0,0,0.05,46.95,0)" xlink:href="#bk"/><use transform="matrix(0.05,0,0,0.05,55.95,0)" xlink:href="#bk"/><use transform="matrix(0.05,0,0,0.05,64.95,0)" xlink:href="#bu"/><use transform="matrix(0.05,0,0,0.05,74.95,0)" xlink:href="#bd"/><use transform="matrix(0.05,0,0,0.05,84.95,0)" xlink:href="#bv"/><use transform="matrix(0.05,0,0,0.05,94.95,0)" xlink:href="#bu"/><use transform="matrix(0.05,0,0,0.05,104.95,0)" xlink:href="#aO"/><use transform="matrix(0.05,0,0,0.05,108.9,0)" xlink:href="#aP"/><use transform="matrix(0.05,0,0,0.05,118.9,0)" xlink:href="#aR"/><use transform="matrix(0.05,0,0,0.05,128.9,0)" xlink:href="#bk"/><use transform="matrix(0.05,0,0,0.05,137.9,0)" xlink:href="#bl"/><use transform="matrix(0.05,0,0,0.05,143.85,0)" xlink:href="#bj"/><use transform="matrix(0.05,0,0,0.05,147.79999999999998,0)" xlink:href="#bd"/><use transform="matrix(0.05,0,0,0.05,157.79999999999998,0)" xlink:href="#bv"/><use transform="matrix(0.05,0,0,0.05,167.79999999999998,0)" xlink:href="#bu"/><use transform="matrix(0.05,0,0,0.05,177.79999999999998,0)" xlink:href="#aO"/><use transform="matrix(0.05,0,0,0.05,181.74999999999997,0)" xlink:href="#aP"/><use transform="matrix(0.05,0,0,0.05,191.74999999999997,0)" xlink:href="#aR"/><use transform="matrix(0.05,0,0,0.05,201.74999999999997,0)" xlink:href="#bk"/><use transform="matrix(0.05,0,0,0.05,210.74999999999997,0)" xlink:href="#bn"/></g><path fill="#333" d="M18-100v-36l175-74v27L42-118l151 64v27" id="cd"/><path fill="#333" d="M18-27v-27l151-64-151-65v-27l175 74v36" id="ce"/><g id="ak"><use transform="matrix(0.05,0,0,0.05,0,0)" xlink:href="#bu"/><use transform="matrix(0.05,0,0,0.05,10,0)" xlink:href="#aO"/><use transform="matrix(0.05,0,0,0.05,13.949999999999998,0)" xlink:href="#bk"/><use transform="matrix(0.05,0,0,0.05,22.95,0)" xlink:href="#aQ"/><use transform="matrix(0.05,0,0,0.05,27.950000000000003,0)" xlink:href="#cd"/><use transform="matrix(0.05,0,0,0.05,38.45,0)" xlink:href="#bu"/><use transform="matrix(0.05,0,0,0.05,48.45,0)" xlink:href="#bd"/><use transform="matrix(0.05,0,0,0.05,58.45,0)" xlink:href="#bv"/><use transform="matrix(0.05,0,0,0.05,68.45,0)" xlink:href="#bu"/><use transform="matrix(0.05,0,0,0.05,78.45,0)" xlink:href="#aO"/><use transform="matrix(0.05,0,0,0.05,82.4,0)" xlink:href="#aP"/><use transform="matrix(0.05,0,0,0.05,92.4,0)" xlink:href="#aR"/><use transform="matrix(0.05,0,0,0.05,102.4,0)" xlink:href="#ce"/><use transform="matrix(0.05,0,0,0.05,112.9,0)" xlink:href="#bm"/><use transform="matrix(0.05,0,0,0.05,118.85000000000001,0)" xlink:href="#bn"/></g><g id="al"><use transform="matrix(0.05,0,0,0.05,0,0)" xlink:href="#aY"/><use transform="matrix(0.05,0,0,0.05,10.950000000000001,0)" xlink:href="#aZ"/><use transform="matrix(0.05,0,0,0.05,21.900000000000002,0)" xlink:href="#ba"/><use transform="matrix(0.05,0,0,0.05,32.85,0)" xlink:href="#cb"/><use transform="matrix(0.05,0,0,0.05,44.85,0)" xlink:href="#cc"/><use transform="matrix(0.05,0,0,0.05,51.85,0)" xlink:href="#aZ"/><use transform="matrix(0.05,0,0,0.05,62.800000000000004,0)" xlink:href="#bX"/><use transform="matrix(0.05,0,0,0.05,72.80000000000001,0)" xlink:href="#bt"/><use transform="matrix(0.05,0,0,0.05,82.80000000000001,0)" xlink:href="#bT"/><use transform="matrix(0.05,0,0,0.05,92.80000000000001,0)" xlink:href="#bT"/><use transform="matrix(0.05,0,0,0.05,102.80000000000001,0)" xlink:href="#aZ"/><use transform="matrix(0.05,0,0,0.05,113.75,0)" xlink:href="#cc"/></g><g id="am"><use transform="matrix(0.05,0,0,0.05,0,0)" xlink:href="#bh"/><use transform="matrix(0.05,0,0,0.05,10,0)" xlink:href="#bk"/><use transform="matrix(0.05,0,0,0.05,19,0)" xlink:href="#aR"/><use transform="matrix(0.05,0,0,0.05,29,0)" xlink:href="#bk"/></g></defs></g></svg>